<?xml version="1.0" encoding="UTF-8" standalone="no"?>
<!-- Created with Inkscape (http://www.inkscape.org/) -->

<svg
   version="1.1"
   id="svg1"
   width="1754"
   height="1241"
   viewBox="0 0 1754 1241"
   sodipodi:docname="sponser5.svg"
   inkscape:version="1.4 (86a8ad7, 2024-10-11)"
   xmlns:inkscape="http://www.inkscape.org/namespaces/inkscape"
   xmlns:sodipodi="http://sodipodi.sourceforge.net/DTD/sodipodi-0.dtd"
   xmlns="http://www.w3.org/2000/svg"
   xmlns:svg="http://www.w3.org/2000/svg">
  <defs
     id="defs1" />
  <sodipodi:namedview
     id="namedview1"
     pagecolor="#ffffff"
     bordercolor="#000000"
     borderopacity="0.25"
     inkscape:showpageshadow="2"
     inkscape:pageopacity="0.0"
     inkscape:pagecheckerboard="0"
     inkscape:deskcolor="#d1d1d1"
     inkscape:zoom="0.31144239"
     inkscape:cx="794.68952"
     inkscape:cy="521.76585"
     inkscape:window-width="1920"
     inkscape:window-height="991"
     inkscape:window-x="-9"
     inkscape:window-y="-9"
     inkscape:window-maximized="1"
     inkscape:current-layer="g1" />
  <g
     inkscape:groupmode="layer"
     inkscape:label="Image"
     id="g1">
    <g
       id="g2"
       transform="matrix(1.2119114,0,0,1.1997847,-272.96838,5.6789723)"
       style="fill:#ffffff">
      <path
         style="fill:#ffffff;fill-opacity:1"
         d="m 1561.3484,991.98757 c 1.302,-0.6409 2.8577,-0.56208 3.457,0.17515 0.5993,0.73723 -0.4659,1.2616 -2.3673,1.16527 -2.1011,-0.10646 -2.5285,-0.63218 -1.0897,-1.34042 z m -46.2714,-47.29426 c 0,-3.05061 0.4093,-4.29859 0.9097,-2.77328 0.5003,1.5253 0.5003,4.02126 0,5.54657 -0.5004,1.52531 -0.9097,0.27733 -0.9097,-2.77329 z m -422.1923,-3.51283 c 0.086,-2.58457 0.5139,-3.11029 1.0897,-1.34042 0.521,1.60157 0.4569,3.51514 -0.1424,4.25237 -0.5993,0.73724 -1.0256,-0.57314 -0.9473,-2.91195 z m -308.79354,-2.5884 c -2.24349,-3.51886 -2.17969,-3.59734 0.68097,-0.83765 1.73599,1.67472 3.15635,3.42189 3.15635,3.8826 0,1.82601 -1.48111,0.65073 -3.83732,-3.04495 z m 566.92214,-3.8826 c 0.037,-3.66073 0.441,-4.88971 0.8983,-2.73106 0.4573,2.15866 0.4272,5.1538 -0.067,6.65589 -0.494,1.50208 -0.8682,-0.26409 -0.8314,-3.92483 z m 147.6886,-0.18488 c 0.086,-2.58458 0.5139,-3.1103 1.0897,-1.34042 0.521,1.60157 0.4569,3.51514 -0.1424,4.25237 -0.5993,0.73723 -1.0256,-0.57315 -0.9473,-2.91195 z m -452.3688,-9.11781 c 1.7549,-0.56251 4.1898,-0.52552 5.4109,0.0822 1.2211,0.60774 -0.2147,1.06798 -3.1907,1.02276 -2.976,-0.0452 -3.9751,-0.54245 -2.2202,-1.10497 z m -577.3627,-9.55565 c 0,-3.05061 0.40938,-4.29859 0.90973,-2.77329 0.50035,1.52531 0.50035,4.02127 0,5.54658 -0.50035,1.5253 -0.90973,0.27732 -0.90973,-2.77329 z M 322.73381,901.24517 c 0.0865,-2.58458 0.51393,-3.1103 1.0897,-1.34042 0.52101,1.60157 0.45694,3.51514 -0.14239,4.25237 -0.59934,0.73723 -1.02562,-0.57315 -0.94731,-2.91195 z M 1473.3086,782.73342 c 0,-1.22024 0.8596,-2.21863 1.9101,-2.21863 1.0506,0 1.4085,0.99839 0.7954,2.21863 -0.6131,1.22025 -1.4726,2.21863 -1.9101,2.21863 -0.4374,0 -0.7954,-0.99838 -0.7954,-2.21863 z M 280.65698,701.39344 c 1.23999,-0.61548 3.26908,-0.61548 4.50908,0 1.23999,0.61547 0.22545,1.11904 -2.25454,1.11904 -2.48,0 -3.49454,-0.50357 -2.25454,-1.11904 z"
         id="path11" />
      <path
         style="fill:#ffffff;fill-opacity:1"
         d="m 872.98397,971.31686 c 0,-3.05062 0.40938,-4.2986 0.90973,-2.77329 0.50035,1.52531 0.50035,4.02126 0,5.54657 -0.50035,1.52531 -0.90973,0.27733 -0.90973,-2.77328 z m 681.14993,2.92168 c 1.302,-0.6409 2.8576,-0.56208 3.457,0.17515 0.5993,0.73723 -0.466,1.2616 -2.3673,1.16527 -2.1011,-0.10646 -2.5285,-0.63218 -1.0897,-1.34042 z M 1109.3934,951.3492 c 0,-4.27086 0.3712,-6.01803 0.8249,-3.8826 0.4536,2.13543 0.4536,5.62977 0,7.7652 -0.4537,2.13543 -0.8249,0.38826 -0.8249,-3.8826 z m -36.0726,-2.21863 c 0,-4.27086 0.3712,-6.01803 0.8248,-3.8826 0.4537,2.13543 0.4537,5.62977 0,7.7652 -0.4536,2.13543 -0.8248,0.38826 -0.8248,-3.8826 z m -112.10125,-7.95009 c 0.0865,-2.58457 0.51393,-3.11029 1.08969,-1.34042 0.52102,1.60157 0.45694,3.51514 -0.14239,4.25237 -0.59933,0.73724 -1.02562,-0.57314 -0.9473,-2.91195 z M 305.1324,904.758 c 0,-7.9316 0.32735,-11.17634 0.72744,-7.21055 0.4001,3.9658 0.4001,10.45529 0,14.42109 -0.40009,3.9658 -0.72744,0.72105 -0.72744,-7.21054 z m 17.60141,-10.16872 c 0.0865,-2.58457 0.51393,-3.11029 1.0897,-1.34042 0.52101,1.60157 0.45694,3.51514 -0.14239,4.25237 -0.59934,0.73723 -1.02562,-0.57314 -0.94731,-2.91195 z m -4.20056,-40.20687 c 2.23199,-0.52882 5.88435,-0.52882 8.11634,0 2.232,0.52881 0.40582,0.96148 -4.05817,0.96148 -4.46399,0 -6.29016,-0.43267 -4.05817,-0.96148 z M 257.80306,670.50779 c 0.0865,-2.58457 0.51393,-3.11029 1.0897,-1.34042 0.52101,1.60157 0.45694,3.51514 -0.1424,4.25237 -0.59933,0.73723 -1.02561,-0.57314 -0.9473,-2.91195 z M 981.0595,215.68893 c 0.0865,-2.58458 0.51393,-3.1103 1.08969,-1.34043 0.52102,1.60158 0.45694,3.51514 -0.14239,4.25238 -0.59933,0.73723 -1.02562,-0.57315 -0.9473,-2.91195 z M 908.54176,115.48087 c -2.24348,-3.51887 -2.17969,-3.59735 0.68098,-0.83766 3.00439,2.89835 3.95983,4.72026 2.47538,4.72026 -0.37453,0 -1.79489,-1.74717 -3.15636,-3.8826 z"
         id="path10" />
      <path
         style="fill:#ffffff;fill-opacity:1"
         d="m 892.20096,989.76894 c 1.302,-0.6409 2.85763,-0.56208 3.45696,0.17515 0.59933,0.73723 -0.46594,1.2616 -2.36727,1.16527 -2.10113,-0.10646 -2.52851,-0.63218 -1.08969,-1.34042 z m -99.09164,-6.80428 c -2.24349,-3.51887 -2.17969,-3.59735 0.68097,-0.83766 1.73599,1.67472 3.15635,3.42189 3.15635,3.8826 0,1.82601 -1.48111,0.65073 -3.83732,-3.04494 z M 391.54789,931.38154 c 0,-4.27086 0.37118,-6.01803 0.82484,-3.8826 0.45366,2.13543 0.45366,5.62977 0,7.7652 -0.45366,2.13543 -0.82484,0.38826 -0.82484,-3.8826 z m -86.8504,-10.16871 c 0.0865,-2.58458 0.51393,-3.1103 1.0897,-1.34043 0.52101,1.60158 0.45694,3.51514 -0.14239,4.25238 -0.59934,0.73723 -1.02562,-0.57315 -0.94731,-2.91195 z m 443.96954,-5.36169 c 0,-4.27086 0.37117,-6.01803 0.82484,-3.8826 0.45366,2.13543 0.45366,5.62977 0,7.7652 -0.45367,2.13543 -0.82484,0.38826 -0.82484,-3.8826 z m 485.11017,-25.51423 c 0.037,-3.66074 0.441,-4.88971 0.8983,-2.73106 0.4573,2.15865 0.4272,5.1538 -0.067,6.65589 -0.4941,1.50208 -0.8683,-0.26409 -0.8315,-3.92483 z m -434.88453,-0.18488 c 0.0865,-2.58458 0.51392,-3.1103 1.08969,-1.34043 0.52102,1.60158 0.45694,3.51514 -0.14239,4.25238 -0.59933,0.73723 -1.02562,-0.57315 -0.9473,-2.91195 z m -493.98595,-4.25238 c 0.0368,-3.66073 0.44098,-4.88971 0.89828,-2.73106 0.4573,2.15866 0.42723,5.15381 -0.0668,6.65589 -0.49406,1.50208 -0.86821,-0.26409 -0.83145,-3.92483 z m 17.82709,2.03375 c 0.0865,-2.58458 0.51393,-3.1103 1.0897,-1.34042 0.52101,1.60157 0.45694,3.51514 -0.14239,4.25237 -0.59934,0.73723 -1.02562,-0.57315 -0.94731,-2.91195 z M 1474.8822,863.15871 c -2.2435,-3.51887 -2.1797,-3.59734 0.681,-0.83765 1.736,1.67472 3.1563,3.42189 3.1563,3.8826 0,1.826 -1.4811,0.65073 -3.8373,-3.04495 z M 1173.5676,734.62665 c 1.3019,-0.6409 2.8576,-0.56208 3.4569,0.17515 0.5993,0.73723 -0.4659,1.2616 -2.3673,1.16527 -2.1011,-0.10646 -2.5285,-0.63218 -1.0896,-1.34042 z M 548.49633,672.40442 c 3.71999,-0.47866 9.80725,-0.47866 13.52724,0 3.71999,0.47866 0.67636,0.87028 -6.76362,0.87028 -7.43998,0 -10.48361,-0.39162 -6.76362,-0.87028 z M 1002.2225,568.2295 c 1.302,-0.6409 2.8576,-0.56208 3.457,0.17515 0.5993,0.73724 -0.466,1.26161 -2.3673,1.16527 -2.1011,-0.10646 -2.5285,-0.63218 -1.0897,-1.34042 z"
         id="path9" />
      <path
         style="fill:#ffffff;fill-opacity:1"
         d="m 397.89306,989.81516 c 1.24,-0.61548 3.26908,-0.61548 4.50908,0 1.24,0.61547 0.22545,1.11904 -2.25454,1.11904 -2.48,0 -3.49454,-0.50357 -2.25454,-1.11904 z M 391.48105,943.584 c 0.0368,-3.66074 0.44099,-4.88972 0.89829,-2.73106 0.4573,2.15865 0.42722,5.1538 -0.0668,6.65588 -0.49406,1.50209 -0.86821,-0.26408 -0.83146,-3.92482 z m 717.63635,-6.84077 c 0.086,-2.58458 0.5139,-3.1103 1.0897,-1.34043 0.521,1.60158 0.4569,3.51514 -0.1424,4.25238 -0.5994,0.73723 -1.0256,-0.57315 -0.9473,-2.91195 z m -804.41991,-8.87452 c 0.0865,-2.58457 0.51393,-3.11029 1.0897,-1.34042 0.52101,1.60157 0.45694,3.51514 -0.14239,4.25237 -0.59934,0.73723 -1.02562,-0.57314 -0.94731,-2.91195 z m 86.88679,-10.90826 c 0.02,-4.88098 0.38938,-6.61651 0.8208,-3.85673 0.43141,2.75978 0.41503,6.75331 -0.0364,8.87452 -0.45144,2.1212 -0.80441,-0.1368 -0.7844,-5.01779 z M 891.15395,904.758 c 0,-4.27086 0.37118,-6.01803 0.82485,-3.8826 0.45366,2.13543 0.45366,5.62977 0,7.7652 -0.45367,2.13543 -0.82485,0.38826 -0.82485,-3.8826 z m -142.62059,0 c 0,-3.05062 0.40938,-4.2986 0.90973,-2.77329 0.50035,1.52531 0.50035,4.02127 0,5.54657 -0.50035,1.52531 -0.90973,0.27733 -0.90973,-2.77328 z m 228.77648,1.38097 c 0,-0.46071 1.42036,-2.20788 3.15636,-3.8826 2.86066,-2.75969 2.92446,-2.68121 0.68097,0.83766 -2.35621,3.69567 -3.83733,4.87095 -3.83733,3.04494 z M 304.69749,876.84025 c 0.0865,-2.58457 0.51393,-3.11029 1.0897,-1.34042 0.52101,1.60157 0.45694,3.51514 -0.14239,4.25237 -0.59934,0.73724 -1.02562,-0.57314 -0.94731,-2.91195 z m 278.96967,-6.83104 c 1.23999,-0.61547 3.26908,-0.61547 4.50908,0 1.23999,0.61548 0.22545,1.11905 -2.25454,1.11905 -2.48,0 -3.49454,-0.50357 -2.25454,-1.11905 z M 307.82418,854.43259 c 1.302,-0.6409 2.85763,-0.56208 3.45697,0.17516 0.59933,0.73723 -0.46594,1.2616 -2.36727,1.16526 -2.10113,-0.10646 -2.52851,-0.63217 -1.0897,-1.34042 z M 536.77272,672.55127 c 1.24,-0.61548 3.26909,-0.61548 4.50908,0 1.24,0.61547 0.22546,1.11904 -2.25454,1.11904 -2.47999,0 -3.49453,-0.50357 -2.25454,-1.11904 z m 32.57811,-0.0462 c 1.30199,-0.64089 2.85763,-0.56207 3.45696,0.17516 0.59933,0.73723 -0.46594,1.2616 -2.36727,1.16527 -2.10113,-0.10646 -2.52851,-0.63218 -1.08969,-1.34043 z"
         id="path8" />
      <path
         style="fill:#ffffff;fill-opacity:1"
         d="m 403.30395,969.8475 c 1.24,-0.61547 3.26909,-0.61547 4.50908,0 1.24,0.61548 0.22546,1.11905 -2.25454,1.11905 -2.47999,0 -3.49453,-0.50357 -2.25454,-1.11905 z m 178.6723,-0.0462 c 1.302,-0.6409 2.85763,-0.56208 3.45696,0.17515 0.59933,0.73724 -0.46594,1.26161 -2.36726,1.16527 -2.10113,-0.10646 -2.52851,-0.63218 -1.0897,-1.34042 z M 891.3128,944.69331 c 0,-7.9316 0.32735,-11.17634 0.72745,-7.21054 0.40009,3.9658 0.40009,10.45529 0,14.42109 -0.4001,3.96579 -0.72745,0.72105 -0.72745,-7.21055 z M 1073.254,928.0536 c 0.037,-3.66074 0.4409,-4.88972 0.8982,-2.73106 0.4573,2.15865 0.4273,5.1538 -0.067,6.65588 -0.494,1.50209 -0.8682,-0.26409 -0.8314,-3.92482 z m 35.8634,2.03374 c 0.086,-2.58458 0.5139,-3.11029 1.0897,-1.34042 0.521,1.60157 0.4569,3.51514 -0.1424,4.25237 -0.5994,0.73723 -1.0256,-0.57315 -0.9473,-2.91195 z m -587.98406,-8.87451 c 0.0865,-2.58458 0.51392,-3.1103 1.08969,-1.34043 0.52102,1.60158 0.45694,3.51514 -0.14239,4.25238 -0.59933,0.73723 -1.02562,-0.57315 -0.9473,-2.91195 z m 353.86072,-7.58032 c 0,-5.4911 0.35174,-7.73747 0.78164,-4.99191 0.4299,2.74555 0.4299,7.23827 0,9.98383 -0.4299,2.74555 -0.78164,0.49919 -0.78164,-4.99192 z M 391.41422,904.758 c 0,-3.05062 0.40938,-4.2986 0.90973,-2.77329 0.50035,1.52531 0.50035,4.02127 0,5.54657 -0.50035,1.52531 -0.90973,0.27733 -0.90973,-2.77328 z m 499.73973,-13.31177 c 0,-4.27086 0.37118,-6.01803 0.82485,-3.8826 0.45366,2.13543 0.45366,5.62977 0,7.7652 -0.45367,2.13543 -0.82485,0.38826 -0.82485,-3.8826 z M 297.82581,872.15971 c 1.75487,-0.56252 4.18978,-0.52553 5.41089,0.0822 1.22112,0.60773 -0.21469,1.06797 -3.19068,1.02276 -2.97599,-0.0452 -3.97509,-0.54245 -2.22021,-1.10497 z m 105.47814,-2.1505 c 1.24,-0.61547 3.26909,-0.61547 4.50908,0 1.24,0.61548 0.22546,1.11905 -2.25454,1.11905 -2.47999,0 -3.49453,-0.50357 -2.25454,-1.11905 z M 574.76172,672.50504 c 1.302,-0.64089 2.85763,-0.56207 3.45696,0.17516 0.59934,0.73723 -0.46593,1.2616 -2.36726,1.16527 -2.10113,-0.10646 -2.52851,-0.63218 -1.0897,-1.34043 z M 946.30992,568.2295 c 1.302,-0.6409 2.85763,-0.56208 3.45696,0.17515 0.59933,0.73724 -0.46594,1.26161 -2.36727,1.16527 -2.10113,-0.10646 -2.52851,-0.63218 -1.08969,-1.34042 z M 907.87001,405.56656 c 1.79549,-2.44049 3.67035,-4.43726 4.16635,-4.43726 0.496,0 -0.56723,1.99677 -2.36272,4.43726 -1.79549,2.44049 -3.67034,4.43726 -4.16634,4.43726 -0.496,0 0.56722,-1.99677 2.36271,-4.43726 z m 44.5406,-183.03686 c 0.0368,-3.66074 0.44099,-4.88972 0.89829,-2.73106 0.45729,2.15865 0.42722,5.1538 -0.0668,6.65588 -0.49405,1.50209 -0.86821,-0.26409 -0.83145,-3.92482 z M 823.57124,20.174658 c 2.24356,-0.530681 5.4901,-0.510533 7.21453,0.04477 1.72443,0.555307 -0.11121,0.9895 -4.0792,0.964875 -3.96799,-0.02463 -5.37889,-0.478967 -3.13533,-1.009648 z"
         id="path7" />
      <path
         style="fill:#ffffff;fill-opacity:1"
         d="m 1036.4915,989.76894 c 1.302,-0.6409 2.8576,-0.56208 3.457,0.17515 0.5993,0.73723 -0.466,1.2616 -2.3673,1.16527 -2.1011,-0.10646 -2.5285,-0.63218 -1.0897,-1.34042 z m 171.3451,0 c 1.302,-0.6409 2.8576,-0.56208 3.4569,0.17515 0.5994,0.73723 -0.4659,1.2616 -2.3672,1.16527 -2.1012,-0.10646 -2.5286,-0.63218 -1.0897,-1.34042 z m -64.4502,-15.30903 c 0.086,-2.58457 0.5139,-3.11029 1.0897,-1.34042 0.521,1.60157 0.4569,3.51514 -0.1424,4.25237 -0.5993,0.73723 -1.0256,-0.57314 -0.9473,-2.91195 z m 394.5148,-0.22137 c 1.302,-0.6409 2.8576,-0.56208 3.457,0.17515 0.5993,0.73723 -0.466,1.2616 -2.3673,1.16527 -2.1011,-0.10646 -2.5285,-0.63218 -1.0897,-1.34042 z M 891.08712,963.55166 c 0.0368,-3.66074 0.44099,-4.88972 0.89829,-2.73107 0.4573,2.15866 0.42722,5.15381 -0.0668,6.65589 -0.49406,1.50208 -0.86821,-0.26409 -0.83146,-3.92482 z m -499.81529,-6.84078 c 0.0865,-2.58457 0.51393,-3.11029 1.08969,-1.34042 0.52102,1.60158 0.45694,3.51514 -0.14239,4.25237 -0.59933,0.73724 -1.02561,-0.57314 -0.9473,-2.91195 z m 768.55647,-2.03374 c 0.037,-3.66074 0.441,-4.88971 0.8983,-2.73106 0.4573,2.15865 0.4272,5.1538 -0.067,6.65589 -0.494,1.50208 -0.8682,-0.26409 -0.8314,-3.92483 z M 874.64521,925.65008 c 0.0865,-2.58457 0.51393,-3.11029 1.0897,-1.34042 0.52101,1.60157 0.45694,3.51514 -0.1424,4.25237 -0.59933,0.73724 -1.02561,-0.57314 -0.9473,-2.91195 z m 234.47219,-2.21863 c 0.086,-2.58457 0.5139,-3.11029 1.0897,-1.34042 0.521,1.60158 0.4569,3.51514 -0.1424,4.25237 -0.5994,0.73724 -1.0256,-0.57314 -0.9473,-2.91195 z M 391.27183,896.80791 c 0.0865,-2.58457 0.51393,-3.11029 1.08969,-1.34042 0.52102,1.60157 0.45694,3.51514 -0.14239,4.25237 -0.59933,0.73723 -1.02561,-0.57314 -0.9473,-2.91195 z m 357.11914,-4.43726 c 0.0865,-2.58457 0.51393,-3.11029 1.08969,-1.34042 0.52102,1.60158 0.45694,3.51514 -0.14239,4.25237 -0.59933,0.73724 -1.02562,-0.57314 -0.9473,-2.91195 z m 142.62932,-12.01757 c 0,-3.05061 0.40938,-4.29859 0.90973,-2.77328 0.50035,1.5253 0.50035,4.02126 0,5.54657 -0.50035,1.52531 -0.90973,0.27733 -0.90973,-2.77329 z m -567.1062,-6.93119 c 1.22346,-1.51625 2.67882,-2.19793 3.23414,-1.51484 0.55531,0.68308 -0.4457,1.92365 -2.22448,2.75682 -2.57053,1.20401 -2.77771,0.94917 -1.00966,-1.24198 z m 548.33419,-21.16171 c 1.24,-0.61547 3.26908,-0.61547 4.50908,0 1.24,0.61548 0.22545,1.11905 -2.25454,1.11905 -2.47999,0 -3.49454,-0.50357 -2.25454,-1.11905 z M 527.86729,672.50504 c 1.302,-0.64089 2.85763,-0.56207 3.45696,0.17516 0.59933,0.73723 -0.46594,1.2616 -2.36726,1.16527 -2.10113,-0.10646 -2.52852,-0.63218 -1.0897,-1.34043 z m 367.94093,-66.55885 c 1.302,-0.6409 2.85763,-0.56208 3.45696,0.17515 0.59934,0.73723 -0.46593,1.2616 -2.36726,1.16527 -2.10113,-0.10646 -2.52851,-0.63218 -1.0897,-1.34042 z m 34.26901,-2.21863 c 1.302,-0.6409 2.85763,-0.56208 3.45696,0.17515 0.59933,0.73723 -0.46594,1.2616 -2.36727,1.16527 -2.10112,-0.10646 -2.52851,-0.63218 -1.08969,-1.34042 z m 21.64358,-35.49806 c 1.302,-0.6409 2.85763,-0.56208 3.45697,0.17515 0.59933,0.73724 -0.46594,1.26161 -2.36727,1.16527 -2.10113,-0.10646 -2.52851,-0.63218 -1.0897,-1.34042 z m 35.95992,0.0462 c 1.24,-0.61547 3.26908,-0.61547 4.50908,0 1.24,0.61548 0.22545,1.11905 -2.25454,1.11905 -2.48,0 -3.49454,-0.50357 -2.25454,-1.11905 z M 912.37909,400.29165 c 0,-0.46071 1.42036,-2.20788 3.15636,-3.8826 2.86066,-2.75969 2.92445,-2.68122 0.68097,0.83765 -2.35621,3.69568 -3.83733,4.87095 -3.83733,3.04495 z m 4.50908,-54.62806 c 1.79549,-2.4405 3.67035,-4.43726 4.16635,-4.43726 0.496,0 -0.56723,1.99676 -2.36272,4.43726 -1.79549,2.44049 -3.67034,4.43725 -4.16634,4.43725 -0.496,0 0.56722,-1.99676 2.36271,-4.43725 z"
         id="path6" />
      <path
         style="fill:#ffffff;fill-opacity:1"
         d="m 1535.9849,992.03379 c 1.24,-0.61548 3.269,-0.61548 4.509,0 1.24,0.61547 0.2255,1.11904 -2.2545,1.11904 -2.48,0 -3.4945,-0.50357 -2.2545,-1.11904 z m -3.4946,-17.79525 c 1.302,-0.6409 2.8577,-0.56208 3.457,0.17515 0.5993,0.73723 -0.466,1.2616 -2.3673,1.16527 -2.1011,-0.10646 -2.5285,-0.63218 -1.0897,-1.34042 z m -802.13565,-4.21588 c 0.0865,-2.58458 0.51393,-3.1103 1.08969,-1.34043 0.52102,1.60158 0.45694,3.51514 -0.14239,4.25238 -0.59933,0.73723 -1.02562,-0.57315 -0.9473,-2.91195 z m 64.5583,-15.90018 c -2.24349,-3.51886 -2.17969,-3.59734 0.68097,-0.83765 3.00439,2.89835 3.95983,4.72025 2.47538,4.72025 -0.37453,0 -1.79489,-1.74717 -3.15635,-3.8826 z m 364.70615,-8.50474 c 0.087,-2.58457 0.5139,-3.11029 1.0897,-1.34042 0.521,1.60157 0.4569,3.51514 -0.1424,4.25237 -0.5994,0.73723 -1.0256,-0.57314 -0.9473,-2.91195 z m 88.7514,-13.12689 c 0.014,-6.10122 0.3638,-8.33386 0.7784,-4.9614 0.4146,3.37245 0.4035,8.36436 -0.025,11.09314 -0.4281,2.72877 -0.7673,-0.0305 -0.7538,-6.13174 z m -14.386,-4.43725 c 0.01,-7.32148 0.3468,-10.04915 0.7482,-6.0615 0.4015,3.98765 0.3932,9.97795 -0.018,13.31177 -0.4115,3.33383 -0.7399,0.0712 -0.7298,-7.25027 z m -359.33929,4.25237 c 0.0865,-2.58458 0.51393,-3.11029 1.0897,-1.34042 0.52101,1.60157 0.45694,3.51514 -0.1424,4.25237 -0.59933,0.73723 -1.02561,-0.57315 -0.9473,-2.91195 z m -215.26574,-2.52568 c 3.20187,-0.49013 8.88331,-0.49818 12.62543,-0.0179 3.74211,0.48028 1.1224,0.88129 -5.82158,0.89113 -6.94398,0.01 -10.00571,-0.38311 -6.80385,-0.87323 z m 121.47688,-37.40964 c 0.0865,-2.58457 0.51392,-3.11029 1.08969,-1.34042 0.52102,1.60158 0.45694,3.51514 -0.14239,4.25237 -0.59933,0.73724 -1.02562,-0.57314 -0.9473,-2.91195 z m -389.58452,-2.21862 c 0.0865,-2.58458 0.51393,-3.1103 1.08969,-1.34043 0.52102,1.60158 0.45694,3.51514 -0.14239,4.25238 -0.59933,0.73723 -1.02561,-0.57315 -0.9473,-2.91195 z m -15.02236,-37.89185 c 1.24,-0.61547 3.26909,-0.61547 4.50908,0 1.24,0.61548 0.22546,1.11905 -2.25454,1.11905 -2.47999,0 -3.49453,-0.50357 -2.25454,-1.11905 z m 504.14948,-0.0681 c 1.75488,-0.56252 4.18978,-0.52552 5.4109,0.0822 1.22111,0.60773 -0.21469,1.06798 -3.19069,1.02276 -2.97599,-0.0452 -3.97509,-0.54245 -2.22021,-1.10497 z M 1137.4949,732.40802 c 1.302,-0.6409 2.8576,-0.56208 3.457,0.17515 0.5993,0.73723 -0.466,1.2616 -2.3673,1.16527 -2.1011,-0.10646 -2.5285,-0.63218 -1.0897,-1.34042 z M 890.39733,605.94619 c 1.30199,-0.6409 2.85763,-0.56208 3.45696,0.17515 0.59933,0.73723 -0.46594,1.2616 -2.36727,1.16527 -2.10113,-0.10646 -2.52851,-0.63218 -1.08969,-1.34042 z m 68.44631,-37.77026 c 2.24357,-0.53068 5.4901,-0.51054 7.21453,0.0448 1.72443,0.55531 -0.11121,0.9895 -4.0792,0.96487 -3.96799,-0.0246 -5.37889,-0.47896 -3.13533,-1.00964 z m 21.62256,0.0998 c 1.24,-0.61547 3.26908,-0.61547 4.50908,0 1.24,0.61548 0.22545,1.11905 -2.25454,1.11905 -2.47999,0 -3.49454,-0.50357 -2.25454,-1.11905 z m 15.33481,-339.09014 c 0.02,-4.88098 0.38938,-6.61651 0.82079,-3.85673 0.43142,2.75978 0.41504,6.75331 -0.0364,8.87451 -0.45143,2.12121 -0.80441,-0.13679 -0.78439,-5.01778 z"
         id="path5" />
      <path
         style="fill:#ffffff;fill-opacity:1"
         d="m 1530.6867,991.98757 c 1.302,-0.6409 2.8576,-0.56208 3.457,0.17515 0.5993,0.73723 -0.466,1.2616 -2.3673,1.16527 -2.1011,-0.10646 -2.5285,-0.63218 -1.0897,-1.34042 z m -947.88703,-2.24055 c 1.75487,-0.56251 4.18978,-0.52552 5.41089,0.0822 1.22112,0.60774 -0.21469,1.06798 -3.19068,1.02276 -2.97599,-0.0452 -3.97509,-0.54245 -2.22021,-1.10497 z m 942.36343,-15.46226 c 1.24,-0.61548 3.2691,-0.61548 4.509,0 1.24,0.61547 0.2255,1.11904 -2.2545,1.11904 -2.48,0 -3.4945,-0.50357 -2.2545,-1.11904 z M 800.32384,960.77837 c -2.24348,-3.51887 -2.17969,-3.59734 0.68097,-0.83766 1.736,1.67472 3.15636,3.42189 3.15636,3.8826 0,1.82601 -1.48112,0.65074 -3.83733,-3.04494 z m -27.8976,-7.7652 -3.43589,-4.99191 4.05817,4.22646 c 3.81368,3.97182 4.87926,5.75736 3.43589,5.75736 -0.34225,0 -2.16842,-2.24636 -4.05817,-4.99191 z m 461.35096,-7.21054 c 0.037,-3.66074 0.441,-4.88972 0.8983,-2.73106 0.4573,2.15865 0.4272,5.1538 -0.067,6.65588 -0.4941,1.50208 -0.8683,-0.26409 -0.8315,-3.92482 z m -359.13199,-6.84078 c 0.0865,-2.58457 0.51393,-3.11029 1.0897,-1.34042 0.52101,1.60158 0.45694,3.51514 -0.1424,4.25238 -0.59933,0.73723 -1.02561,-0.57315 -0.9473,-2.91196 z m 285.11629,-0.92442 c 0,-3.05062 0.4093,-4.2986 0.9097,-2.77329 0.5003,1.52531 0.5003,4.02127 0,5.54657 -0.5004,1.52531 -0.9097,0.27733 -0.9097,-2.77328 z M 874.64521,887.9334 c 0.0865,-2.58458 0.51393,-3.1103 1.0897,-1.34042 0.52101,1.60157 0.45694,3.51514 -0.1424,4.25237 -0.59933,0.73723 -1.02561,-0.57315 -0.9473,-2.91195 z m 483.23099,-23.94837 c 0,-0.46071 1.4204,-2.20788 3.1564,-3.8826 2.8606,-2.75969 2.9244,-2.68122 0.6809,0.83765 -2.3562,3.69568 -3.8373,4.87095 -3.8373,3.04495 z M 1021.9708,601.45536 c 2.2435,-0.53069 5.4901,-0.51054 7.2145,0.0448 1.7244,0.55531 -0.1112,0.9895 -4.0792,0.96487 -3.968,-0.0246 -5.3789,-0.47896 -3.1353,-1.00964 z m 14.5207,0.0536 c 1.302,-0.6409 2.8576,-0.56208 3.457,0.17515 0.5993,0.73724 -0.466,1.26161 -2.3673,1.16527 -2.1011,-0.10646 -2.5285,-0.63218 -1.0897,-1.34042 z m -65.94528,-33.29321 c 1.736,-0.55805 4.57672,-0.55805 6.31272,0 1.73599,0.55804 0.31563,1.01463 -3.15636,1.01463 -3.47199,0 -4.89235,-0.45659 -3.15636,-1.01463 z"
         id="path4" />
      <path
         style="fill:#ffffff;fill-opacity:1"
         d="m 1356.9744,997.9404 c 0.6131,-1.22025 1.4726,-2.21863 1.9101,-2.21863 0.4374,0 0.7953,0.99838 0.7953,2.21863 0,1.22024 -0.8595,2.2186 -1.91,2.2186 -1.0506,0 -1.4085,-0.99836 -0.7954,-2.2186 z m 166.385,-5.90661 c 1.24,-0.61548 3.2691,-0.61548 4.5091,0 1.24,0.61547 0.2255,1.11904 -2.2545,1.11904 -2.48,0 -3.4946,-0.50357 -2.2546,-1.11904 z m -6.2783,-17.81717 c 1.7548,-0.56251 4.1897,-0.52552 5.4108,0.0822 1.2212,0.60774 -0.2146,1.06798 -3.1906,1.02276 -2.976,-0.0452 -3.9751,-0.54245 -2.2202,-1.10497 z M 1233.568,954.49226 c 0.087,-2.58458 0.5139,-3.1103 1.0897,-1.34043 0.521,1.60158 0.4569,3.51514 -0.1424,4.25238 -0.5993,0.73723 -1.0256,-0.57315 -0.9473,-2.91195 z m 14.429,-39.93532 c 0.087,-2.58458 0.514,-3.11029 1.0897,-1.34042 0.521,1.60157 0.457,3.51514 -0.1424,4.25237 -0.5993,0.73723 -1.0256,-0.57315 -0.9473,-2.91195 z m -204.291,-22.40766 c 1.302,-0.6409 2.8577,-0.56208 3.457,0.17515 0.5993,0.73723 -0.4659,1.2616 -2.3673,1.16527 -2.1011,-0.10646 -2.5285,-0.63218 -1.0897,-1.34042 z m -652.43417,-13.0904 c 0.0865,-2.58457 0.51393,-3.11029 1.08969,-1.34042 0.52102,1.60157 0.45694,3.51514 -0.14239,4.25237 -0.59933,0.73723 -1.02561,-0.57314 -0.9473,-2.91195 z m -4.08784,-26.84492 c 1.302,-0.64089 2.85763,-0.56207 3.45696,0.17516 0.59934,0.73723 -0.46593,1.2616 -2.36726,1.16526 -2.10113,-0.10645 -2.52851,-0.63217 -1.0897,-1.34042 z M 1420.6651,834.46493 c 1.302,-0.64089 2.8577,-0.56207 3.457,0.17516 0.5993,0.73723 -0.4659,1.2616 -2.3673,1.16527 -2.1011,-0.10646 -2.5285,-0.63218 -1.0897,-1.34043 z m 176.021,-27.88125 -3.4359,-4.99191 4.0581,4.22646 c 3.8137,3.97183 4.8793,5.75737 3.4359,5.75737 -0.3422,0 -2.1684,-2.24637 -4.0581,-4.99192 z M 1014.8479,601.50893 c 1.302,-0.6409 2.8577,-0.56208 3.457,0.17515 0.5993,0.73724 -0.4659,1.26161 -2.3673,1.16527 -2.1011,-0.10646 -2.5285,-0.63218 -1.0897,-1.34042 z m 27.0545,0 c 1.302,-0.6409 2.8576,-0.56208 3.457,0.17515 0.5993,0.73724 -0.466,1.26161 -2.3673,1.16527 -2.1011,-0.10646 -2.5285,-0.63218 -1.0897,-1.34042 z M 917.78999,307.10924 c 0,-0.46071 1.42036,-2.20788 3.15635,-3.8826 2.86066,-2.75968 2.92446,-2.68121 0.68097,0.83766 -2.35621,3.69567 -3.83732,4.87095 -3.83732,3.04494 z m 48.84045,-122.48112 c 0.0865,-2.58457 0.51393,-3.11029 1.0897,-1.34042 0.52101,1.60158 0.45694,3.51514 -0.14239,4.25237 -0.59934,0.73724 -1.02562,-0.57314 -0.94731,-2.91195 z M 703.15778,87.465011 c 0,-0.460711 1.42036,-2.207881 3.15635,-3.8826 2.86066,-2.759687 2.92446,-2.681214 0.68097,0.837655 -2.35621,3.695676 -3.83732,4.870952 -3.83732,3.044945 z M 824.45203,73.461537 c 1.736,-0.558047 4.57672,-0.558047 6.31271,0 1.736,0.558046 0.31564,1.014629 -3.15635,1.014629 -3.472,0 -4.89236,-0.456583 -3.15636,-1.014629 z"
         id="path3" />
      <path
         style="fill:#ffffff;fill-opacity:1"
         d="m 1322.7054,996.64527 c -1.984,-0.37997 -9.9578,-1.33453 -17.7196,-2.12125 -7.7617,-0.78671 -13.849,-1.74023 -13.5272,-2.11893 0.3218,-0.37869 12.311,-1.81479 26.6428,-3.19131 14.3317,-1.37653 26.3488,-2.86087 26.7046,-3.29853 0.3558,-0.43767 -0.5789,-6.6469 -2.0773,-13.79831 -16.538,-78.93594 19.3424,-140.57369 81.8303,-140.57369 56.6955,0 92.0545,47.97545 89.9347,122.02458 l -0.6033,21.07697 38.7781,1.38538 c 38.1123,1.3616 97.5741,5.99626 99.0494,7.72025 0.4133,0.48301 -1.6157,0.88674 -4.5091,0.89717 -2.8933,0.0104 -14.1885,0.98381 -25.1005,2.16306 -23.5832,2.54861 -125.4484,7.31395 -126.5804,5.92153 -0.4336,-0.53337 0.477,-9.17464 2.0234,-19.20283 7.1182,-46.15782 0.9995,-80.48377 -19.1901,-107.65728 -10.8797,-14.64309 -30.0244,-27.09411 -45.7541,-29.75667 -30.2583,-5.12184 -59.8688,12.75148 -72.8068,43.94727 -9.4649,22.82147 -11.5404,57.895 -5.5314,93.4728 1.958,11.59234 3.5706,21.82576 3.5836,22.74095 0.022,1.57019 -27.3732,1.85768 -35.1471,0.36884 z M 308.16237,986.88842 c -2.28829,-1.78425 -2.70545,-10.75901 -2.70545,-58.20503 v -56.09551 l -12.78041,0.28178 c -7.02922,0.15498 -14.47533,1.3976 -16.54691,2.76137 -3.36602,2.21593 -3.97805,1.69118 -5.75586,-4.93508 -2.28241,-8.50705 -1.10761,-14.10976 3.22228,-15.36727 1.65153,-0.47964 16.80057,-0.39677 33.66453,0.18416 19.80515,0.68224 34.12589,0.13966 40.44535,-1.53241 10.62888,-2.81228 12.67944,-1.55669 12.73418,7.79731 0.049,8.37887 -4.77605,10.81014 -21.45364,10.81014 h -15.4932 v 46.5912 c 0,25.62516 0.66343,50.71321 1.47429,55.75121 1.43616,8.92311 1.32425,9.22434 -4.32732,11.6478 -7.01085,3.00633 -8.95812,3.05476 -12.47784,0.31033 z m 72.14528,-0.69004 -4.50908,-2.80209 -0.97702,-60.95077 c -0.53736,-33.52293 -1.6034,-62.58469 -2.36899,-64.5817 -1.22681,-3.20008 0.92228,-3.80763 18.11152,-5.12015 23.47416,-1.79242 35.19345,0.5971 51.06706,10.41239 18.76,11.60007 28.58777,33.70834 26.42089,59.43571 -2.63271,31.25819 -19.53834,54.78007 -45.3049,63.03561 -12.91281,4.13724 -36.19664,4.45051 -42.43948,0.571 z m 41.59313,-18.45504 c 38.13407,-13.93027 38.14394,-81.09113 0.014,-94.92832 -13.96349,-5.06729 -26.53242,-4.74725 -28.9182,0.73632 -1.10865,2.54817 -1.86709,22.33068 -1.86709,48.69959 0,39.95293 0.31666,44.63506 3.15635,46.66959 4.69619,3.36463 16.56706,2.8586 27.61499,-1.17718 z m 137.56606,17.21572 c -12.11045,-5.14801 -21.34795,-13.97024 -27.86633,-26.61361 -13.58615,-26.35238 -11.6505,-57.3432 5.00485,-80.1303 16.16718,-22.11922 46.56145,-33.2127 69.44058,-25.34483 4.2438,1.45939 5.27965,6.31292 3.03657,14.22794 -1.78734,6.30685 -2.37671,6.69937 -7.58933,5.05443 -3.10833,-0.98089 -11.37714,-1.70241 -18.37513,-1.60339 -15.69952,0.22217 -28.65757,7.90933 -36.35045,21.56435 -4.56506,8.10307 -5.03489,10.73217 -5.03489,28.17475 0,17.59762 0.44424,20.02625 5.21074,28.48688 6.35823,11.286 13.78506,17.17459 26.05494,20.65848 9.00981,2.55823 14.03664,1.9319 30.16439,-3.75844 2.80864,-0.99097 4.2394,0.10853 5.8701,4.51101 2.67682,7.22676 0.26654,13.7411 -6.20376,16.76713 -7.58352,3.54665 -33.0866,2.37366 -43.36228,-1.9944 z m 63.88022,1.71049 c -1.77373,-1.27081 -3.1557,-4.88573 -3.15485,-8.2524 8.3e-4,-3.29504 7.586,-25.45945 16.85593,-49.25424 21.11773,-54.20663 22.42244,-58.47726 19.28567,-63.12647 -1.9886,-2.94745 -1.8493,-4.22602 0.86197,-7.91126 4.0377,-5.48817 10.21161,-5.64925 14.09723,-0.3678 1.62982,2.21531 8.57047,20.93499 15.42366,41.59929 15.80133,47.64547 22.65932,66.22613 27.58296,74.73171 l 3.91676,6.76622 -4.12185,4.10564 c -8.70214,8.6679 -15.15315,2.73536 -23.50509,-21.61597 l -5.25543,-15.32301 h -20.21815 -20.21815 l -4.14411,13.31177 c -2.27925,7.32147 -4.18598,16.55651 -4.23716,20.52231 -0.0823,6.37614 -0.66703,7.20274 -5.05305,7.14308 -2.72799,-0.0371 -6.38034,-1.0851 -8.11634,-2.32887 z m 55.16713,-56.95198 c 0.8811,-1.78765 -8.95754,-33.75829 -11.30439,-36.73359 -1.14962,-1.45748 -14.55372,32.72886 -14.55372,37.11837 0,1.91477 24.90737,1.54414 25.85811,-0.38478 z m 55.63486,56.50879 c -1.21568,-1.80184 -2.13298,-25.1118 -2.51011,-63.78557 -0.32688,-33.52033 -1.2263,-62.53949 -1.99872,-64.48703 -1.2223,-3.08186 0.97194,-3.71906 16.92319,-4.91445 21.69683,-1.62597 33.86513,1.03306 41.66297,9.10423 15.43535,15.97638 13.32509,49.92875 -3.97872,64.01465 l -6.85107,5.57701 15.89099,19.79083 c 8.74004,10.88495 16.58825,19.80611 17.44046,19.8248 0.85221,0.0187 2.64056,0.88458 3.9741,1.92421 2.00123,1.56016 1.9144,3.10394 -0.49722,8.84054 -2.35242,5.59578 -4.04901,6.9503 -8.70545,6.9503 -4.82636,0 -7.43073,-2.28925 -15.73547,-13.83151 -22.37077,-31.09184 -33.31568,-40.95019 -39.90336,-35.94199 -2.04384,1.55381 -1.37374,21.84246 1.25554,38.0137 0.98897,6.0826 0.52698,6.97967 -4.76261,9.24791 -7.52452,3.2266 -9.84862,3.16421 -12.20452,-0.32763 z m 35.66461,-66.99734 c 7.35207,-4.67668 11.53931,-14.01554 11.67965,-26.04924 0.17751,-15.222 -5.831,-22.17446 -20.27446,-23.45959 l -10.63669,-0.94642 -1.16679,7.1763 c -1.60999,9.90214 -1.47084,45.44193 0.18593,47.48798 1.82002,2.24766 14.07334,-0.30397 20.21236,-4.20903 z m 110.55096,67.5491 c -2.23199,-1.10358 -4.19013,-3.28666 -4.35141,-4.85128 -0.16129,-1.56463 -0.38315,-28.30355 -0.49302,-59.41981 -0.13209,-37.40797 -0.90531,-58.54863 -2.28231,-62.40045 l -2.08254,-5.82542 14.75007,-1.12761 c 34.44793,-2.63348 53.50349,10.08831 53.52142,35.73173 0.008,11.25226 -3.49554,19.53677 -11.05488,26.14144 l -5.4047,4.72216 6.09175,4.63118 c 15.7195,11.95054 14.62678,39.00773 -2.1261,52.64516 -12.98726,10.57208 -35.41259,15.26867 -46.56828,9.7529 z m 33.0329,-18.70616 c 11.21973,-5.76654 13.80594,-22.41702 5.05298,-32.53201 -3.38455,-3.91122 -7.04438,-5.27491 -16.04965,-5.98026 l -11.66534,-0.9137 v 19.85635 c 0,10.92099 0.54109,20.52193 1.20242,21.33543 2.13574,2.62715 14.9666,1.57136 21.45959,-1.76581 z m -0.20386,-57.57957 c 7.26425,-3.73356 10.00722,-9.24582 10.00722,-20.11047 0,-13.89721 -11.35379,-22.84803 -26.31871,-20.7485 l -5.24485,0.73583 -0.51622,21.63163 -0.51622,21.63163 h 8.23959 c 4.53177,0 10.98891,-1.41305 14.34919,-3.14012 z m 51.49076,76.40126 c -2.2732,-1.76809 -2.61129,-8.23172 -2.11614,-40.456 0.34725,-22.59907 -0.16607,-40.78021 -1.24974,-44.26418 -1.46407,-4.70692 -1.27833,-6.17715 0.91093,-7.21054 5.81474,-2.74473 9.83226,-1.07607 13.04239,5.41713 2.959,5.98522 3.57904,6.33108 5.70393,3.18165 3.18134,-4.71529 11.53393,-9.89686 15.95353,-9.89686 3.24248,0 11.04228,9.40282 11.04228,13.31178 0,0.89112 -1.7205,4.31072 -3.8233,7.59911 l -3.8233,5.97889 -3.46149,-4.57038 c -4.72864,-6.24343 -6.44958,-5.81536 -13.47889,3.3528 -6.00461,7.83166 -6.07386,8.1584 -5.99561,28.28752 0.0435,11.20039 1.15121,24.05769 2.46149,28.57177 2.36023,8.13132 2.33191,8.22905 -3.05376,10.53849 -6.63394,2.84471 -8.62554,2.87082 -12.11232,0.15882 z m 59.87718,-1.53912 c -7.3303,-4.44379 -11.1791,-13.1311 -11.1791,-25.23298 0,-19.59435 11.7249,-30.98444 33.6795,-32.71758 7.2682,-0.57377 13.2149,-1.26213 13.2149,-1.5297 0,-0.26756 -0.8643,-3.53632 -1.9207,-7.26391 -3.5531,-12.53759 -18.8918,-14.98406 -29.5129,-4.7072 -5.716,5.53071 -10.0499,4.07721 -10.0499,-3.37049 0,-11.08382 8.8965,-16.88473 25.8192,-16.83511 13.2297,0.0388 18.632,2.96251 24.1774,13.08483 3.6791,6.71547 4.1207,10.21832 4.1915,33.24711 0.051,16.59687 1.0025,28.89328 2.6783,34.6153 1.4295,4.88098 2.6113,9.02644 2.6263,9.21213 0.015,0.18569 -2.4879,1.41608 -5.5617,2.73419 -5.7684,2.47356 -12.4475,0.16397 -12.4475,-4.30427 0,-1.20212 -3.2142,-0.16861 -7.1427,2.29669 -8.5868,5.38861 -20.4285,5.70814 -28.5726,0.77099 z m 28.5904,-15.20396 c 4.8881,-3.10937 5.3213,-4.35257 5.3213,-15.27176 0,-10.93231 -0.3638,-11.97239 -4.5303,-12.95212 -6.7137,-1.57871 -18.5219,1.63914 -22.5759,6.15216 -4.9898,5.55466 -4.7433,17.52581 0.453,22.00289 5.0986,4.39287 14.4865,4.42316 21.3319,0.0688 z m 43.3634,16.86975 c -2.0268,-1.57836 -2.573,-10.41769 -2.7054,-43.78394 -0.091,-22.99348 -0.8615,-43.5535 -1.7116,-45.68893 -1.3329,-3.34812 -0.6076,-3.8826 5.2689,-3.8826 3.748,0 8.1724,1.5116 9.832,3.35911 2.6947,2.99972 3.7168,2.99972 9.5532,0 9.3744,-4.8181 23.8864,-4.33033 30.9508,1.04031 8.9133,6.77619 11.4888,17.06234 12.2309,48.84767 0.3713,15.90593 1.5747,29.82038 2.8217,32.62787 2.0233,4.55523 1.676,5.07864 -5.0043,7.54063 -11.7125,4.31654 -12.3561,2.53407 -13.0267,-36.07312 -0.5637,-32.45121 -0.6988,-33.45875 -5.0692,-37.8071 -5.4258,-5.39833 -18.6888,-4.69351 -26.2423,1.39457 l -4.7849,3.8565 0.7523,29.20607 c 0.4138,16.06334 1.3347,30.77541 2.0466,32.69349 2.1452,5.78039 -9.4144,10.95053 -14.912,6.66947 z m 99.0339,-0.43581 c -8.2475,-4.02423 -16.244,-15.74194 -19.1585,-28.0742 -4.6248,-19.56916 0.1498,-39.74263 12.5848,-53.17285 8.9849,-9.70391 17.3848,-12.48187 33.2728,-11.00378 l 13.4798,1.25404 -0.9895,-17.04649 c -0.5443,-9.37557 -1.5179,-18.67467 -2.1637,-20.66468 -1.6434,-5.06463 8.643,-9.54734 13.9265,-6.06905 3.6075,2.37486 3.6733,3.6046 2.5802,48.21607 -1.0297,42.02276 0.1371,71.24856 3.2138,80.50021 0.923,2.77531 -0.2724,4.26511 -4.9438,6.16153 -6.8552,2.783 -12.1225,1.30422 -12.1225,-3.40337 0,-4.11817 -1.5391,-3.90922 -9.92,1.34669 -7.6539,4.80004 -21.9987,5.74281 -29.7599,1.95588 z m 30.0208,-17.68458 c 8.6422,-6.57013 9.6591,-10.16016 9.6591,-34.0995 0,-20.79883 -0.1041,-21.32644 -4.6265,-23.44146 -7.7501,-3.62457 -22.7594,-2.57499 -28.885,2.0199 -15.1334,11.35168 -15.3328,50.43725 -0.2952,57.87404 7.1502,3.5361 17.7612,2.50215 24.1476,-2.35298 z M 1610.3847,867.2249 c -1.488,-1.04506 -17.7207,-8.62743 -36.0727,-16.84972 -47.6677,-21.35673 -71.2332,-36.44161 -91.2949,-58.44033 l -8.8066,-9.65691 12.6254,1.51171 c 24.5276,2.93685 46.2362,7.91543 77.012,17.66175 17.1177,5.42097 31.5475,9.32 32.0663,8.66452 1.9004,-2.40123 -12.0654,-14.78497 -26.1112,-23.15326 -11.0048,-6.5565 -27.484,-12.54049 -69.4399,-25.21527 -51.7119,-15.62209 -73.6129,-22.94032 -69.4398,-23.20342 4.1798,-0.26353 53.7772,9.03897 71.0987,13.33528 31.8831,7.90806 56.552,19.70423 77.0253,36.83185 8.287,6.93277 24.7348,25.06992 23.7894,26.23282 -0.3342,0.41109 -17.6431,-2.5491 -38.4643,-6.57818 -20.8211,-4.02909 -41.9148,-7.92604 -46.8748,-8.65989 l -9.0181,-1.33426 4.5091,4.67396 c 2.4799,2.57068 18.7126,13.08344 36.0726,23.36168 44.5991,26.4056 56.337,33.77777 61.3976,38.56161 4.623,4.3702 4.585,5.52827 -0.074,2.25606 z m -494.1952,-66.91319 c -214.85113,-22.88227 -335.85357,-37.83164 -336.88021,-41.6202 -0.57433,-2.11945 0.8049,-2.54505 5.27345,-1.62726 3.32815,0.68356 27.15368,3.28752 52.94562,5.78657 121.46849,11.76942 343.73514,38.22499 350.80644,41.75518 3.8989,1.94648 3.2888,2.23062 -4.5091,2.09989 -4.96,-0.0832 -35.3963,-2.96054 -67.6362,-6.39418 z m 20.7418,-67.68772 C 886.72563,721.19778 790.49952,710.95857 649.95063,680.80542 581.60021,666.14163 512.4154,668.71729 346.45668,692.10412 c -54.87205,7.73254 -66.53987,8.80344 -72.39711,6.64479 -8.5479,-3.15027 -12.64847,-10.38305 -14.03173,-24.7498 -0.98396,-10.21953 -0.66157,-11.39224 5.05454,-18.38634 7.43598,-9.09851 8.59727,-9.61695 78.25081,-34.93381 C 565.1104,540.06993 744.33439,450.56852 851.0556,367.13102 911.7349,319.69032 937.8159,289.66871 948.55614,254.899 961.66662,212.45601 947.53975,161.68727 909.90242,115.98637 886.74187,87.863824 860.69868,74.556322 828.5102,74.396725 c -21.91593,-0.108664 -34.68381,3.487062 -55.01077,15.492286 -14.04059,8.292452 -19.59141,13.169129 -30.74114,27.007639 -15.47958,19.21252 -22.57187,34.4532 -34.11811,73.31666 -9.27174,31.20769 -11.3533,36.24082 -17.41321,42.10432 -8.57925,8.30118 -22.52852,4.43086 -27.81288,-7.71687 -8.17144,-18.7846 5.28141,-76.87747 26.89498,-116.13941 19.21646,-34.907508 54.45817,-65.387112 91.68849,-79.298905 14.09783,-5.267912 18.94279,-5.944343 43.80719,-6.116151 23.90448,-0.165175 30.16079,0.547801 43.16663,4.919319 75.48216,25.371034 126.37478,106.202947 126.37478,200.718967 0,35.48648 -5.06017,62.73415 -17.19196,92.57409 -13.98959,34.40947 -34.71023,60.64317 -65.77511,83.2756 -1.488,1.08409 2.47301,-5.14683 8.80223,-13.84648 40.68991,-55.92913 58.79117,-105.20702 60.95458,-165.93946 1.11851,-31.39915 -1.85503,-52.68355 -10.22845,-73.21475 -5.87407,-14.40292 -10.3279,-22.4345 -11.584,-20.88939 -0.43504,0.53514 0.85067,9.4477 2.85713,19.8057 2.61546,13.50182 3.64411,26.36893 3.63396,45.45626 -0.0321,60.4277 -15.44033,106.42799 -49.83541,148.78079 -19.69853,24.25603 -43.40735,43.94131 -83.05803,68.96253 -40.94035,25.83506 -58.7967,34.57048 -271.44662,132.79315 -134.52904,62.13875 -191.59235,89.48022 -194.75127,93.31366 -2.45744,2.98219 -3.45798,5.42217 -2.22341,5.42217 1.23457,0 20.28953,-2.45695 42.34436,-5.45989 103.40101,-14.07886 178.24159,-15.49807 233.85063,-4.43454 l 16.80347,3.34309 20.97704,-10.96479 c 46.80306,-24.46419 98.84792,-39.01589 178.79483,-49.99089 86.66254,-11.89692 173.64127,-10.24974 235.37397,4.45744 67.6641,16.12027 128.4405,46.25808 181.7159,90.1093 15.005,12.35068 17.1277,14.9177 14.7521,17.83998 -1.7976,2.21123 -27.7901,-10.65248 -56.3686,-27.89688 -63.506,-38.31988 -119.4288,-56.10278 -189.6993,-60.32251 -20.6189,-1.23817 -45.39775,0.80381 -47.9571,3.95205 -0.89404,1.09974 16.841,71.20424 22.1057,87.38093 5.4362,16.70408 8.8569,19.60154 27.031,22.89648 6.7912,1.23124 48.8712,4.77717 93.5111,7.87984 72.0501,5.00781 100.1016,8.15259 100.1016,11.22214 0,1.4348 -31.8636,0.6324 -101.9052,-2.56621 z m -179.92162,-25.8786 c -0.51271,-3.9658 -2.68865,-23.68386 -4.83542,-43.81791 -4.75275,-44.57493 -6.73794,-53.43255 -12.77041,-56.97965 -8.19453,-4.81838 -77.93963,1.0706 -182.9594,15.44834 l -19.76043,2.70531 0.51079,22.18628 c 0.90755,39.41938 5.20754,44.91753 39.08162,49.97148 14.13002,2.10817 158.31666,16.28254 177.37128,17.43661 3.86228,0.23393 4.20041,-0.46512 3.36197,-6.95046 z"
         id="path2" />
    </g>
  </g>
</svg>
