<?xml version="1.0" encoding="UTF-8" standalone="no"?>
<!-- Created with Inkscape (http://www.inkscape.org/) -->

<svg
   version="1.1"
   id="svg1"
   width="653"
   height="655"
   viewBox="0 0 653 655"
   sodipodi:docname="sponser3.svg"
   inkscape:version="1.4 (86a8ad7, 2024-10-11)"
   xmlns:inkscape="http://www.inkscape.org/namespaces/inkscape"
   xmlns:sodipodi="http://sodipodi.sourceforge.net/DTD/sodipodi-0.dtd"
   xmlns="http://www.w3.org/2000/svg"
   xmlns:svg="http://www.w3.org/2000/svg">
  <defs
     id="defs1" />
  <sodipodi:namedview
     id="namedview1"
     pagecolor="#ffffff"
     bordercolor="#000000"
     borderopacity="0.25"
     inkscape:showpageshadow="2"
     inkscape:pageopacity="0.0"
     inkscape:pagecheckerboard="0"
     inkscape:deskcolor="#d1d1d1"
     inkscape:zoom="0.59007634"
     inkscape:cx="583.82277"
     inkscape:cy="509.25614"
     inkscape:window-width="1920"
     inkscape:window-height="991"
     inkscape:window-x="-9"
     inkscape:window-y="-9"
     inkscape:window-maximized="1"
     inkscape:current-layer="g1" />
  <g
     inkscape:groupmode="layer"
     inkscape:label="Image"
     id="g1">
    <g
       id="g2"
       transform="translate(1.9013306,-6.3469174)">
      <path
         style="fill:#a91619"
         d="m 256.73406,375.01333 c 2.29274,-5.64205 84.72383,-216.50963 91.36541,-233.7225 4.63212,-12.00498 -5.18234,-10.98137 102.25557,-10.66481 l 91.85504,0.27064 10.29837,18.70498 10.29837,18.70499 -3.15341,2.42519 c -1.73437,1.33385 -4.32383,3.49161 -5.75435,4.79501 -1.43052,1.30341 -4.92934,4.39483 -7.77515,6.86983 -2.84582,2.475 -7.81848,6.975 -11.05037,10 -6.93659,6.49256 -11.91394,10.7645 -18.07354,15.51213 l -4.5,3.46846 -56.25,0.01 c -36.82686,0.006 -56.25,0.355 -56.25,1.0097 0,0.55 -0.47656,1 -1.05902,1 -0.58246,0 -0.7809,-0.45 -0.44098,-1 0.35052,-0.56716 -0.48962,-1 -1.94098,-1 -1.40746,0 -2.55902,0.41968 -2.55902,0.93261 0,0.51294 -0.84637,1.20124 -1.88082,1.52957 -1.26754,0.4023 -2.73465,3.1144 -4.49928,8.31738 -1.44015,4.24625 -3.02631,8.84544 -3.52481,10.22044 -0.4985,1.375 -1.46612,4.075 -2.15027,6 -0.68415,1.925 -1.58724,4.4 -2.00688,5.5 -2.16055,5.66356 -5.17545,13.93626 -8.01766,22 -1.74472,4.95 -4.46553,12.31787 -6.04625,16.37304 -1.58072,4.05518 -2.87403,8.44268 -2.87403,9.75 0,1.30733 -0.45,2.37696 -1,2.37696 -0.55,0 -1,1.035 -1,2.3 0,1.265 -0.38202,2.7275 -0.84894,3.25 -1.41433,1.58268 -6.07386,15.19387 -5.42385,15.84388 0.33337,0.33337 0.0811,0.60612 -0.56054,0.60612 -0.64167,0 -1.16667,0.91583 -1.16667,2.03519 0,1.11935 -0.73596,3.15839 -1.63546,4.5312 -0.8995,1.37282 -1.3534,2.77808 -1.00867,3.12281 0.34473,0.34473 0.20892,1.13027 -0.30179,1.74563 -0.5107,0.61537 -2.06024,4.48178 -3.44341,8.59201 -3.59937,10.69594 -8.02046,22.84631 -9.94999,27.34529 -0.91337,2.12966 -1.68229,4.60466 -1.70871,5.5 -0.0264,0.89533 -0.81392,3.17002 -1.75,5.05487 -2.09911,4.22665 -0.56438,4.06298 -41.20197,4.39401 -18.20627,0.14831 -31.96145,0.68455 -34.12577,1.33039 L 254.24847,381.13 Z M 138.5,309.75537 c -4.90982,-1.00477 -10.53856,-2.9683 -17.33588,-6.04746 -4.03474,-1.82772 -7.75839,-3.062 -8.27478,-2.74286 -0.51639,0.31915 -0.81524,-0.0157 -0.66412,-0.74406 0.15198,-0.73245 -0.50253,-1.26306 -1.46446,-1.18723 -0.95658,0.0754 -1.49252,-0.2621 -1.19098,-0.75 0.50773,-0.82153 -0.95574,-1.31747 -2.89411,-0.98074 -0.45338,0.0788 -0.55328,-0.29538 -0.22199,-0.83141 0.58592,-0.94803 -3.26459,-3.69196 -4.64201,-3.30796 -1.28087,0.35709 -10.944558,-11.22625 -14.822562,-17.76699 -8.759169,-14.77342 -11.580461,-31.47373 -8.958064,-53.02623 2.617575,-21.51287 9.46254,-38.32999 21.968592,-53.97377 2.857954,-3.575 5.489694,-6.50689 5.848324,-6.51531 1.47909,-0.0347 3.1436,-1.68932 2.59402,-2.57856 -0.32485,-0.52563 -0.21263,-0.83203 0.24937,-0.6809 0.77561,0.2537 6.46625,-3.94831 11.81626,-8.72523 2.89445,-2.58439 6.25129,-4.4639 21.72506,-12.16396 l 12.73268,-6.33604 21.76732,9.5e-4 c 11.97203,5.2e-4 47.69361,0.29854 79.38128,0.66226 55.25086,0.63418 57.59424,0.73668 57.13337,2.49905 -0.26432,1.01076 -0.90466,1.83774 -1.42297,1.83774 -0.51831,0 -0.6213,0.51953 -0.22886,1.15451 0.40874,0.66136 0.27746,0.88501 -0.30733,0.52358 -1.26526,-0.78197 -4.11958,2.25028 -4.58826,4.87425 -0.19133,1.07122 -1.02983,3.52266 -1.86333,5.44766 -0.8335,1.925 -3.02232,7.325 -4.86405,12 -1.84173,4.675 -3.88545,9.4 -4.54159,10.5 -0.65615,1.1 -1.49464,3.35 -1.86332,5 -1.12058,5.01504 -6.48324,15.38448 -8.51996,16.4745 -1.25241,0.67027 -24.2613,1.0255 -66.42289,1.0255 -42.61602,0 -64.71988,0.34489 -65.13484,1.01631 -0.34546,0.55898 -1.0288,0.76868 -1.51852,0.46602 -0.96894,-0.59884 -8.9714,6.2005 -8.9714,7.6226 0,0.47972 -0.76258,1.76284 -1.69463,2.85139 -2.29471,2.68003 -4.23611,10.45753 -4.1296,16.54368 0.0827,4.72489 0.12805,4.80743 0.82423,1.5 l 0.73672,-3.5 0.13164,3.75 c 0.0724,2.0625 -0.3438,3.75 -0.9249,3.75 -0.64915,0 -0.50139,1.06037 0.38321,2.75 0.79186,1.5125 3.3141,6.6875 5.60497,11.5 l 4.16524,8.75 h 56.42017 c 61.9438,0 58.51061,-0.36994 52.88638,5.69871 -1.73695,1.87419 -6.48868,13.41476 -7.94714,19.30129 -0.0681,0.275 -0.64867,1.7668 -1.29008,3.3151 -0.64142,1.54831 -1.16621,3.43425 -1.16621,4.19098 0,0.75674 -0.45,1.654 -1,1.99392 -0.55,0.33992 -1,1.49148 -1,2.55902 0,1.06754 -0.45,1.94098 -1,1.94098 -0.55,0 -1,1.04742 -1,2.32759 0,3.63772 -4.92008,14.98344 -7.32878,16.90018 -1.99092,1.58428 -6.03268,1.71997 -48.67122,1.63399 -25.575,-0.0516 -47.4,-0.27794 -48.5,-0.50305 z M 102,292.01911 c 0,-0.20766 -0.7875,-0.99516 -1.75,-1.75 -1.586056,-1.24387 -1.621426,-1.2085 -0.377555,0.37755 C 101.17881,292.31241 102,292.84214 102,292.01911 Z m 423,-87 c 0,-0.20766 0.7875,-0.99516 1.75,-1.75 1.58606,-1.24387 1.62143,-1.2085 0.37756,0.37755 C 525.82119,205.31241 525,205.84214 525,205.01911 Z"
         id="path3" />
      <path
         style="fill:#ffffff"
         d="M 0,329.89666 V 2.396662 H 326.5 653 v 327.499998 327.5 H 326.5 0 Z M 299,654.29007 C 272.7454,651.99194 245.33603,646.19598 220.70223,637.7333 172.66753,621.23148 132.68747,596.20893 96.437605,559.95906 60.157482,523.67893 34.961834,483.32784 18.383154,434.95405 9.1148664,407.91074 5.0839617,387.7819 1.650362,351.39666 c -0.1816583,-1.925 -0.4023045,65.6875 -0.4903249,150.25 L 1,655.39666 154.75,655.25914 c 89.7543,-0.0803 149.79579,-0.48364 144.25,-0.96907 z M 650.83996,501.64666 c -0.088,-84.5625 -0.30866,-152.175 -0.49032,-150.25 -1.68151,17.81863 -2.82743,27.11886 -4.49731,36.5 C 627.88968,488.80818 561.40446,577.01926 469.5,621.87692 429.33473,641.4812 397.74385,649.95771 347,654.7463 c -1.925,0.18166 65.6875,0.4023 150.25,0.49032 L 651,655.39666 Z M 364,648.97337 C 480.14723,634.92799 579.24582,559.232 623.31523,450.89666 c 16.00493,-39.34472 23.11882,-76.69113 23.04857,-121 -0.0409,-25.81679 -1.36953,-39.84758 -5.9432,-62.76395 C 630.22315,216.03842 606.39879,166.06563 573.13782,126.0037 501.02653,39.147621 389.27921,-3.4578047 277.82422,13.410745 c -45.95478,6.955188 -90.13856,23.986793 -128.33707,49.470329 -20.47454,13.65927 -33.36254,24.232933 -50.511606,41.441086 -27.091061,27.18441 -45.3488,52.94749 -62.062159,87.5745 -51.770897,107.2598 -39.2670775,235.58568 32.208254,330.55123 55.702621,74.00917 138.040301,119.56758 231.157691,127.90229 13.76143,1.23175 48.32509,0.48493 63.72067,-1.37681 z m -6.07692,-127.49978 c -3.18726,-3.18726 -3.73562,-6.15769 -1.48203,-8.028 1.18144,-0.98051 1.9043,-0.46211 4.01254,2.87755 1.88356,2.98375 3.23696,4.07352 5.05895,4.07352 2.35521,0 6.48746,-3.06305 6.48746,-4.80887 0,-1.92316 -2.8447,-4.05694 -7.41711,-5.56349 C 357.83906,507.8023 356,505.9107 356,501.19622 c 0,-5.37674 3.4648,-8.79956 8.90749,-8.79956 5.36844,0 8.71593,1.67664 10.12124,5.06936 2.23159,5.38755 -1.31606,6.73843 -4.91445,1.87134 -2.54159,-3.43768 -6.58289,-3.76575 -8.5083,-0.6907 -1.67624,2.6771 0.19242,4.65475 6.37321,6.74493 7.11149,2.40492 9.39678,5.16533 8.68285,10.48805 -0.76758,5.72276 -4.30912,8.51702 -10.79473,8.51702 -4.21637,0 -5.48967,-0.46851 -7.94423,-2.92307 z M 382,512.89666 c 0,-10.61668 0.1454,-11.5 1.89301,-11.5 2.60583,0 3.10699,1.85498 3.10699,11.5 0,9.64503 -0.50116,11.5 -3.10699,11.5 -1.74761,0 -1.89301,-0.88332 -1.89301,-11.5 z m 10,0 c 0,-10.83333 0.11594,-11.5 2,-11.5 1.19435,0 2,0.66667 2,1.65499 0,1.53998 0.12708,1.53998 1.82874,0 1.89204,-1.71227 6.77882,-2.19182 8.8587,-0.86932 2.05711,1.30802 3.31256,6.1204 3.31256,12.69764 0,7.64398 -0.6114,9.51669 -3.10699,9.51669 -1.67537,0 -1.89301,-0.79731 -1.89301,-6.9349 0,-8.15124 -1.22467,-12.0651 -3.77525,-12.0651 -3.2245,0 -4.22475,2.15883 -4.22475,9.11821 0,8.01147 -0.58806,9.88179 -3.10699,9.88179 -1.74761,0 -1.89301,-0.88332 -1.89301,-11.5 z m 25.91334,10.2182 C 415.2236,521.04974 414,517.74299 414,512.53913 c 0,-7.16961 3.43514,-11.14247 9.63435,-11.14247 3.39832,0 5.03941,0.58285 6.9111,2.45455 2.79658,2.79658 3.01165,3.83821 1.11713,5.41052 -1.02245,0.84856 -1.88776,0.52414 -3.67431,-1.37756 C 423.64388,503.25978 419,505.9393 419,513.07042 c 0,6.87301 5.09265,9.56651 8.91058,4.71279 1.2528,-1.59267 2.6482,-2.3861 3.57258,-2.03138 2.23452,0.85746 1.8488,3.40378 -0.93771,6.19029 -1.85955,1.85955 -3.49577,2.44683 -6.75,2.42274 -2.3625,-0.0175 -5.00945,-0.57999 -5.88211,-1.25 z m 22.39242,-1.13161 c -2.53954,-2.18443 -2.80576,-3.03073 -2.80576,-8.91944 0,-5.50929 0.37141,-6.90137 2.42431,-9.08658 2.4275,-2.58395 7.60889,-3.4644 11.53089,-1.95939 2.06424,0.79213 4.5448,5.5527 4.5448,8.72217 0,2.98378 -1.57916,3.65665 -8.58179,3.65665 -4.14952,0 -5.41821,0.35123 -5.41821,1.5 0,1.61183 3.43936,5.5 4.86514,5.5 0.47583,0 2.00931,-0.9 3.40773,-2 4.98353,-3.92004 7.96523,-1.45121 3.41268,2.82569 -3.2769,3.07848 -9.65538,2.9645 -13.37979,-0.2391 z M 451,509.59666 c 0,-4.1313 -6.04595,-5.85118 -7.96482,-2.26574 -1.7924,3.34915 -1.18172,4.06574 3.46482,4.06574 3.66667,0 4.5,-0.33333 4.5,-1.8 z m 20.13669,13.46471 c -1.76429,-2.12585 -0.44936,-4.50938 6.51943,-11.81748 6.43952,-6.75306 7.38207,-9.04516 5.03785,-12.25107 -1.8896,-2.58419 -5.72889,-1.66471 -7.66158,1.83489 -2.02299,3.66312 -3.67289,4.277 -4.49906,1.67398 -1.8545,-5.84302 6.95486,-11.90181 13.04718,-8.97342 7.59544,3.65091 7.0724,11.1077 -1.37626,19.6207 l -5.70425,5.74769 6,0.5 c 5.16667,0.43056 6,0.77778 6,2.5 0,1.8116 -0.76265,2.02713 -8.09606,2.28796 -6.02691,0.21436 -8.39538,-0.0727 -9.26725,-1.12325 z m 24.36254,-1.26004 c -2.83012,-3.05375 -3.97705,-9.19855 -3.23806,-17.34823 0.61256,-6.75549 2.13165,-9.5623 6.05475,-11.1873 6.69073,-2.77139 11.47236,2.21748 12.36831,12.90434 0.6727,8.02395 -1.35268,15.44353 -4.70555,17.23793 -3.42863,1.83495 -7.92933,1.14488 -10.47945,-1.60674 z m 8.4927,-2.89494 c 1.78238,-2.14765 2.47858,-13.55405 1.085,-17.77663 -1.36349,-4.13141 -3.13733,-5.14063 -5.71828,-3.2534 -2.62823,1.92181 -3.30999,16.41943 -0.94207,20.03333 1.85189,2.82634 3.772,3.1696 5.57535,0.9967 z m 20.70931,4.85817 C 524.31556,523.37888 524,518.41333 524,512.73 c 0,-10.18199 -0.54614,-11.79006 -3,-8.83334 -1.40535,1.69334 -4.57437,1.9977 -5.48353,0.52665 -0.33086,-0.53535 0.42098,-1.77285 1.67076,-2.75 1.24977,-0.97716 3.97618,-3.54689 6.05868,-5.71051 2.55315,-2.65262 4.11583,-3.6044 4.79794,-2.92228 0.61769,0.61768 0.90345,6.81724 0.73387,15.92131 -0.23323,12.52133 -0.52582,14.95732 -1.82648,15.20685 -0.85182,0.16342 -1.86432,-0.0184 -2.25,-0.40412 z m 16.77348,-1.98968 c -3.00216,-3.23938 -3.87193,-7.58263 -3.25242,-16.24113 0.54635,-7.63588 2.00618,-10.57487 6.09362,-12.26795 6.46543,-2.67807 11.39453,2.18162 12.31297,12.13956 0.68334,7.40895 -0.7687,14.13111 -3.68164,17.04405 -2.90943,2.90943 -8.4531,2.58349 -11.47253,-0.67453 z m 8.51721,-2.86849 c 1.78238,-2.14765 2.47858,-13.55405 1.085,-17.77663 -1.3615,-4.12539 -3.13706,-5.14083 -5.70533,-3.26287 -2.3215,1.69752 -3.24732,15.00138 -1.36089,19.55564 1.33928,3.2333 3.98464,3.88958 5.98122,1.48386 z M 382.66667,497.73 c -1.04997,-1.04997 -0.77829,-4.14632 0.42929,-4.89265 0.60278,-0.37253 1.80162,0.0283 2.6641,0.8908 1.29182,1.29182 1.34144,1.84128 0.28159,3.11832 -1.39413,1.67983 -2.33292,1.92559 -3.37498,0.88353 z M 99.267209,483.38359 C 93.718204,482.23419 89.14216,480.0102 84.925497,476.4134 L 81.5,473.49146 l 4.5,2.2026 c 3.844136,1.88158 6.176096,2.2026 16,2.2026 10.72862,0 11.81198,-0.1834 16.1511,-2.73419 6.60638,-3.88363 12.49874,-10.97919 14.56755,-17.54219 1.45694,-4.62196 1.83164,-5.12906 2.3062,-3.12111 0.72556,3.07001 -2.31266,14.09371 -4.8668,17.65847 -6.51799,9.09698 -19.09805,13.66866 -30.890841,11.22595 z M 358.93161,483.2705 c -5.37545,-0.77199 -13.59868,-4.7246 -16.43161,-7.89809 l -2,-2.24043 4.5,2.3282 c 6.68252,3.45738 22.24323,3.97136 30.14709,0.99577 13.32724,-5.01735 21.06529,-17.04149 23.84924,-37.05929 0.81202,-5.83874 0.86992,-5.38095 0.5692,4.5 -0.23764,7.80838 -0.92353,12.65966 -2.36394,16.72005 -6.11632,17.24142 -19.75229,25.31319 -38.26998,22.65379 z m -214.69307,-0.5162 c -0.6938,-0.29257 -1.67488,-1.30443 -2.18018,-2.24858 -0.7837,-1.46437 -0.40247,-1.73127 2.59415,-1.81622 5.05516,-0.14329 7.87198,-3.3582 10.89458,-12.43424 l 2.61715,-7.8586 h 10.35049 c 9.45673,0 10.40506,0.17193 10.98243,1.99105 1.09177,3.43987 -0.32554,4.00895 -9.98433,4.00895 h -9.36913 l -2.0558,5.75 c -3.8827,10.85977 -5.19436,12.7281 -9.0879,12.94479 -1.925,0.10714 -4.06766,-0.0446 -4.76146,-0.33715 z m 47.95002,-1.39659 c -2.84599,-2.65144 -2.79874,-2.76105 1.19033,-2.76105 4.51337,0 7.23692,-1.59432 9.36076,-5.47964 l 1.76035,-3.22036 0.31327,4.3682 c 0.2455,3.42314 -0.17083,4.8835 -1.92431,6.75 -2.81151,2.99271 -7.68838,3.14897 -10.7004,0.34285 z m 23.46643,0.21021 c -2.28621,-2.52623 -2.15225,-2.729 1.98717,-3.00777 C 226.39626,477.97059 228,474.70147 228,457.44632 c 0,-12.06847 0.14024,-13.04966 1.86514,-13.04966 2.0728,0 7.13486,3.61242 7.13486,5.09163 0,0.52056 -1.06031,0.68036 -2.35624,0.3551 C 229.93173,448.66074 229,451.21798 229,465.33323 c 0,11.42886 -0.22111,13.07481 -2.07258,15.42857 -2.55916,3.25345 -8.66263,3.68992 -11.27243,0.80612 z M 258,480.89666 l -2.34863,-2.5 h 4.75124 c 3.89687,0 5.26679,-0.51556 7.61833,-2.86709 2.21294,-2.21294 2.99394,-2.53651 3.42307,-1.41821 1.07127,2.79167 0.53625,4.95522 -1.75846,7.11099 -3.26125,3.06378 -8.6422,2.91381 -11.68555,-0.32569 z m 36,0 -2.34863,-2.5 h 4.25124 c 5.67809,0 9.64744,-3.81671 10.60413,-10.19635 0.37292,-2.48682 0.52396,-16.06021 0.33565,-30.16309 l -0.34239,-25.6416 8,-0.0313 c 8.31642,-0.0325 9.81115,-0.6096 12.79589,-4.94018 1.70384,-2.47211 1.70411,-2.47215 1.70411,-0.21789 0,2.85294 -2.69238,9.37551 -4.28879,10.39003 -0.66616,0.42336 -4.44715,0.77663 -8.40219,0.78505 -3.95504,0.008 -7.42114,0.38771 -7.70243,0.84285 -0.2813,0.45515 -0.58707,12.71765 -0.67948,27.25 -0.0924,14.53236 -0.38466,27.84932 -0.64944,29.59325 -1.08181,7.12519 -8.56411,9.84657 -13.27767,4.82921 z m 126.98571,-0.0152 -2.36292,-2.51521 4.62061,0.17477 c 5.53402,0.20933 8.83734,-1.68738 11.0464,-6.34263 1.3127,-2.7663 5.79674,-20.06702 9.27917,-35.80172 l 0.77463,-3.5 0.72597,3.36769 c 0.72718,3.3733 0.20062,6.17073 -5.74084,30.49877 -3.28314,13.4432 -5.53552,16.63354 -11.74331,16.63354 -3.23311,0 -4.79656,-0.59584 -6.59971,-2.51521 z m 42.1673,0.64792 c -3.0608,-2.65462 -2.7232,-3.13271 2.21213,-3.13271 4.46219,0 8.67707,-2.34183 10.56543,-5.87027 0.50486,-0.94334 3.91647,-15.6009 7.58136,-32.57236 7.37917,-34.17166 8.32744,-37.58506 8.42468,-30.32576 0.0522,3.89308 -4.84238,29.21134 -8.94463,46.26839 -0.5291,2.2 -1.8983,8.12868 -3.04266,13.17484 -2.52732,11.14442 -4.91392,14.32516 -10.74856,14.32516 -2.36714,0 -4.7392,-0.73239 -6.04775,-1.86729 z m 39.12513,0.61729 c -2.1649,-2.79922 -1.9561,-3.25637 1.5729,-3.44376 4.05559,-0.21535 9.14896,-4.81549 9.14896,-8.263 0,-1.05886 0.47681,-2.21989 1.05958,-2.58006 0.71067,-0.43922 0.8958,0.77622 0.56219,3.69098 -0.27356,2.39021 -0.52538,5.04849 -0.55958,5.90728 -0.0342,0.85879 -0.97972,2.54629 -2.10115,3.75 -2.27733,2.44444 -8.08303,3.00718 -9.6829,0.93856 z m 41.02762,-1.16548 -2.80576,-2.41548 4.66003,-0.001 c 5.77687,-10e-4 8.31784,-1.30982 10.57962,-5.44749 1.53381,-2.80593 1.83357,-7.20976 2.32933,-34.22036 l 0.56898,-31 0.0545,32.91624 c 0.0543,32.75527 -0.37772,38.12616 -3.30159,41.05002 -2.40968,2.40969 -8.80377,1.94317 -12.08512,-0.88174 z M 90.670137,472.77346 c -5.553685,-1.70627 -12.391777,-7.95068 -15.606002,-14.25108 -6.717375,-13.16715 -6.745157,-34.02983 -0.06276,-47.12841 6.821999,-13.37223 21.869735,-19.79307 36.451845,-15.55393 12.35413,3.59144 22.19182,18.90759 16.95072,26.39031 -1.19026,1.69933 -2.38723,2.20085 -4.70773,1.97251 -2.67992,-0.26371 -3.61388,-1.20806 -6.73131,-6.8062 -2.83022,-5.08238 -4.5842,-7.00432 -8.04227,-8.8124 -8.39352,-4.38862 -16.907326,-1.00607 -21.597758,8.58082 -3.62354,7.40625 -4.483299,21.73491 -1.848072,30.79977 2.987525,10.27673 10.748986,15.73764 19.92175,14.01682 5.2805,-0.99063 8.59325,-4.31734 12.21644,-12.2679 3.01476,-6.61546 3.60975,-7.31711 6.20478,-7.31711 4.58003,0 6.57362,3.03065 5.87482,8.9309 -1.05515,8.90913 -6.87352,16.84625 -15.18731,20.71779 -5.94604,2.76893 -16.177365,3.08145 -23.837143,0.72811 z m 48.984853,-0.20554 C 138.74474,471.56211 138,469.22646 138,467.37757 c 0,-3.25961 19.59007,-62.35372 22.60056,-68.17538 1.5623,-3.02115 4.87029,-4.80553 8.90878,-4.80553 5.3457,0 6.93276,3.09082 18.4851,36 6.08171,17.325 11.30963,33.3 11.61759,35.5 0.6849,4.89271 -2.08573,8.5 -6.52854,8.5 -3.74448,0 -4.62943,-1.23914 -7.95674,-11.1414 l -2.80862,-8.3586 h -13.8665 -13.86651 l -2.22823,7.32735 c -1.22553,4.03005 -2.94256,8.41755 -3.81562,9.75 -1.93295,2.95006 -6.47903,3.25389 -8.88628,0.59391 z M 178,442.31466 c 0,-1.47156 -9.29687,-30.95446 -9.64966,-30.60168 -0.53692,0.53693 -9.33219,29.19184 -9.34124,30.43368 -0.007,0.91292 2.55271,1.25 9.4909,1.25 6.14665,0 9.5,-0.38193 9.5,-1.082 z m -11.68276,-10.48803 c 2.00156,-6.1563 2.19251,-6.40073 3.03222,-3.88157 1.26986,3.80955 -0.82669,10.4516 -3.29902,10.4516 -1.79863,0 -1.78854,-0.2483 0.2668,-6.57003 z m 46.08775,40.46504 c -1.79648,-1.98508 -1.90499,-4.0867 -1.90499,-36.89501 0,-32.80831 0.10851,-34.90993 1.90499,-36.89501 1.80431,-1.99374 2.87107,-2.10499 20.1849,-2.10499 10.5215,0 19.4747,0.4527 21.09501,1.06661 7.13372,2.7029 11.3151,9.88146 11.3151,19.42567 0,10.27771 -3.76921,16.42546 -12.23994,19.96389 l -3.73995,1.56227 3.73995,3.87983 c 7.792,8.08346 15.10441,23.69781 13.30922,28.41952 -1.61782,4.25518 -7.46815,5.0302 -10.81127,1.43221 -1.14985,-1.2375 -4.84629,-7.425 -8.21434,-13.75 -3.36804,-6.325 -7.67409,-12.9625 -9.569,-14.75 -2.94343,-2.77657 -4.17579,-3.25 -8.45998,-3.25 H 224 v 14.06574 c 0,16.95433 -1.04326,19.88324 -7.09501,19.91895 -1.42726,0.008 -3.45226,-0.93193 -4.5,-2.08968 z m 29.83914,-43.5359 C 248.17994,427.77461 251,424.47153 251,418.50017 c 0,-3.83349 -0.55961,-5.64311 -2.41138,-7.79774 -2.33198,-2.71338 -2.77649,-2.81691 -13.5,-3.14424 L 224,407.21971 v 11.08848 11.08847 l 7.25,-0.011 c 3.9875,-0.006 8.93486,-0.28951 10.99413,-0.62989 z M 228,418.06333 v -6.66667 l 6.75,0.0147 c 7.29952,0.0159 11.53636,1.51814 12.06801,4.27878 0.29964,1.55588 -0.52735,1.71823 -7.6932,1.51027 -4.41591,-0.12815 -8.24613,-0.0158 -8.5116,0.24966 -0.26547,0.26547 -0.64502,1.69503 -0.84346,3.1768 C 229.04254,426.05715 228,424.54696 228,418.06333 Z m 63,54.33333 c -1.91398,-1.91398 -2,-3.33333 -2,-33 v -31 h -9.34501 c -10.31293,0 -12.65499,-1.15804 -12.65499,-6.25731 0,-5.5827 0.80433,-5.74269 28.87143,-5.74269 18.67778,0 26.05742,0.32886 26.92857,1.2 1.82153,1.82153 1.44719,7.26633 -0.62874,9.14501 -1.42184,1.28675 -3.86937,1.65499 -11,1.65499 H 302 v 30.7775 c 0,26.23756 -0.22963,31.10533 -1.5567,33 -1.9811,2.82841 -6.7256,2.9402 -9.4433,0.2225 z m 61,1.1218 c -13.54764,-4.44442 -20.66186,-14.31389 -23.18654,-32.16643 -1.89292,-13.3853 1.70195,-28.52441 8.72029,-36.72377 1.93477,-2.26033 6.09367,-5.37463 9.242,-6.92065 4.9988,-2.45471 6.86484,-2.80898 14.72425,-2.79545 7.29845,0.0126 9.9997,0.46429 14.28768,2.38935 6.5058,2.92072 12.35817,9.35066 15.4257,16.94806 2.01599,4.99303 2.27639,7.32653 2.24828,20.14709 -0.0364,16.57967 -1.57551,22.26819 -8.08181,29.86933 -5.61582,6.56083 -12.17306,9.42599 -22.37985,9.7788 -4.675,0.1616 -9.625,-0.0752 -11,-0.52633 z m 16.59893,-13.02723 c 7.74506,-3.51738 11.40467,-11.86829 11.39549,-26.0035 -0.006,-9.79804 -1.19394,-15.01916 -4.53437,-19.93504 -7.22882,-10.63817 -21.49025,-10.48521 -28.3325,0.30389 -6.77415,10.68173 -6.36484,30.37625 0.84165,40.49682 2.43751,3.42317 9.42658,7.04948 13.5308,7.02051 1.65,-0.0116 4.84452,-0.85885 7.09893,-1.88268 z M 347.1596,433.89666 c -0.23347,-15.00187 4.69029,-22.5 14.77496,-22.5 3.06735,0 4.81638,0.70905 7.29966,2.95923 l 3.26578,2.95923 -5.13933,-0.58541 c -4.15065,-0.4728 -5.88203,-0.16745 -9,1.58722 -6.2627,3.5244 -9.11427,9.28669 -10.67912,21.57973 -0.21004,1.65 -0.44491,-1.05 -0.52195,-6 z m 70.9542,37.91754 c -1.11726,-1.42035 -2.25269,-3.33285 -2.5232,-4.25 -1.80032,-6.10397 -13.59177,-63.29248 -13.59125,-65.91754 0.002,-7.81741 9.60028,-10.16367 11.9115,-2.91157 0.55417,1.73886 3.0476,13.69574 5.54097,26.57084 2.49336,12.8751 4.68227,23.55816 4.86425,23.74014 0.18198,0.18197 2.49279,-9.00161 5.13515,-20.40796 6.00364,-25.91612 7.18026,-29.87293 9.60388,-32.29655 1.92087,-1.92087 6.25387,-2.53104 9.4001,-1.32372 2.77267,1.06398 4.13882,5.1443 9.99965,29.86627 3.12769,13.19309 5.8181,24.11884 5.9787,24.27944 0.1606,0.1606 2.47723,-11.03576 5.14807,-24.8808 3.3275,-17.24904 5.43958,-25.91461 6.7098,-27.52945 3.69471,-4.69705 10.70858,-1.83236 10.70858,4.37374 0,5.38431 -14.10704,67.884 -15.86082,70.26962 -1.25955,1.71333 -2.98218,2.5974 -5.47445,2.80953 -6.68265,0.56879 -7.45663,-1.10195 -14.61515,-31.5488 -3.52241,-14.9816 -6.53538,-27.10826 -6.6955,-26.94814 -0.16012,0.16012 -2.76954,10.75475 -5.7987,23.54362 -7.24493,30.58753 -7.34506,30.93347 -9.60813,33.19654 -2.90189,2.90189 -8.30015,2.58537 -10.83345,-0.63521 z m 80.54119,0.75372 C 497.18003,470.93811 497,466.85392 497,435.02247 v -35.71672 l 2.45455,-2.45454 c 3.38682,-3.38683 7.75478,-3.26463 10.56103,0.29545 1.19224,1.5125 8.23798,13.325 15.65721,26.25 7.41923,12.925 13.90299,23.9275 14.40836,24.45 0.55929,0.57826 0.91885,-8.91106 0.91885,-24.25 0,-23.86666 0.10582,-25.30582 2,-27.2 2.73541,-2.73541 6.58462,-2.56358 8.51335,0.38003 1.35409,2.06661 1.52174,7.1474 1.27305,38.58144 -0.27297,34.50363 -0.37744,36.26794 -2.22753,37.61997 -3.19658,2.33604 -7.85829,1.76146 -10.80239,-1.33144 -1.43973,-1.5125 -8.52984,-13.1 -15.7558,-25.75 -7.22596,-12.65 -13.55719,-23.4275 -14.06939,-23.95 -0.57556,-0.58712 -0.93129,8.39981 -0.93129,23.5275 0,20.53557 -0.2507,24.83541 -1.5567,26.7 -1.92201,2.74404 -6.47665,2.94812 -8.78831,0.39376 z m 15.7424,-20.17126 c 0,-7.975 0.1553,-11.2375 0.34512,-7.25 0.18981,3.9875 0.18981,10.5125 0,14.5 -0.18982,3.9875 -0.34512,0.725 -0.34512,-7.25 z M 258.53775,442.1471 c -1.44877,-2.06841 -1.4332,-2.35087 0.1933,-3.50773 C 266.23953,433.29892 270,425.98277 270,416.71516 v -4.3185 h 7.61663 c 7.41072,0 7.60033,0.0608 7.01366,2.25 -0.33164,1.2375 -0.60913,2.64964 -0.61664,3.1381 -0.008,0.49436 -2.8954,0.59285 -6.51365,0.22215 l -6.5,-0.66595 -0.006,5.77785 c -0.003,3.17782 -0.48301,7.4972 -1.06654,9.59863 -1.00428,3.61661 -7.20872,11.67922 -8.98754,11.67922 -0.45481,0 -1.53598,-1.0123 -2.40259,-2.24956 z M 88.235795,432.09841 c 0.837758,-13.42822 5.83111,-20.70175 14.211975,-20.70175 3.3002,0 4.75898,0.60636 6.94295,2.88593 l 2.7649,2.88594 -4.4121,-0.49731 C 98.220527,415.59784 90,424.80572 90,436.54589 c 0,2.21767 -0.483876,3.85077 -1.140957,3.85077 -0.804539,0 -0.988308,-2.44679 -0.623248,-8.29825 z m 37.079575,1.23484 c -1.20154,-0.45308 -2.67988,-1.74916 -3.28518,-2.88018 -1.00767,-1.88285 -0.82097,-2.05641 2.21212,-2.05641 4.1488,0 7.56104,-2.33503 9.32077,-6.3783 l 1.35864,-3.1217 0.0391,5.13922 c 0.0582,7.63856 -3.90744,11.46106 -9.64549,9.29737 z m 133.18237,-43.31458 c -1.11059,-0.81209 -1.57614,-1.97532 -1.1916,-2.9774 0.57047,-1.48664 4.32025,-1.64461 39.04003,-1.64461 30.36375,0 38.63572,-0.27325 39.49162,-1.30455 0.59547,-0.7175 14.32407,-38.18 30.508,-83.25 l 29.42532,-81.94545 60.5423,-0.25772 60.5423,-0.25771 5.32215,-4.77973 c 2.92718,-2.62884 14.38883,-12.95417 25.47033,-22.94517 l 20.14819,-18.16545 1.19267,2.87934 c 0.69125,1.66883 0.83915,3.47515 0.3518,4.29656 -0.67518,1.13799 -25.4352,23.63054 -45.59373,41.41835 l -3.75288,3.31153 -59.74712,0.0153 c -32.86092,0.008 -60.32161,0.37989 -61.02376,0.82549 -0.70215,0.44559 -4.87873,10.9012 -9.28129,23.23468 -4.40256,12.33349 -8.41554,23.32452 -8.91773,24.42452 -0.83056,1.8193 -9.85885,26.58363 -23.51464,64.5 -18.38189,51.03876 -18.83497,52.17317 -21.1959,53.07079 -1.26305,0.48022 -18.87826,0.87557 -39.1449,0.87857 -29.12797,0.004 -37.23034,-0.2738 -38.67116,-1.32735 z M 258,380.093 c 2.13564,-0.67056 15.38944,-1.20124 34,-1.36137 40.65981,-0.34983 39.10388,-0.18336 41.20197,-4.40797 0.93608,-1.88485 1.72358,-4.15954 1.75,-5.05487 0.0264,-0.89534 0.79534,-3.37034 1.70871,-5.5 1.92953,-4.49898 6.35062,-16.64935 9.94999,-27.34529 1.38317,-4.11023 2.93271,-7.97664 3.44341,-8.59201 0.51071,-0.61536 0.64652,-1.4009 0.30179,-1.74563 -0.34473,-0.34473 0.10917,-1.74999 1.00867,-3.12281 0.8995,-1.37281 1.63546,-3.41185 1.63546,-4.5312 0,-1.11936 0.525,-2.03519 1.16667,-2.03519 0.64166,0 0.89391,-0.27275 0.56054,-0.60612 -0.65001,-0.65001 4.00952,-14.2612 5.42385,-15.84388 0.46692,-0.5225 0.84894,-1.985 0.84894,-3.25 0,-1.265 0.45,-2.3 1,-2.3 0.55,0 1,-1.06963 1,-2.37696 0,-1.30732 1.29331,-5.69482 2.87403,-9.75 1.58072,-4.05517 4.30153,-11.42304 6.04625,-16.37304 2.84221,-8.06374 5.85711,-16.33644 8.01766,-22 0.41964,-1.1 1.28027,-3.4625 1.91252,-5.25 0.63224,-1.7875 1.59987,-4.4875 2.15026,-6 0.5504,-1.5125 2.17903,-6.22419 3.61918,-10.47044 1.76463,-5.20298 3.23174,-7.91508 4.49928,-8.31738 1.03445,-0.32833 1.88082,-1.01663 1.88082,-1.52957 0,-0.51293 1.15156,-0.93261 2.55902,-0.93261 1.45136,0 2.2915,0.43284 1.94098,1 -0.33992,0.55 -0.14148,1 0.44098,1 0.58246,0 1.05902,-0.45 1.05902,-1 0,-0.6547 19.42314,-1.00335 56.25,-1.0097 l 56.25,-0.01 4.5,-3.46846 c 6.1596,-4.74763 11.13695,-9.01957 18.07354,-15.51213 3.23189,-3.025 8.2029,-7.525 11.0467,-10 2.84379,-2.475 6.56761,-5.76968 8.27515,-7.32152 5.10585,-4.64029 8.42939,-6.77101 9.03445,-5.79201 0.31363,0.50748 -7.40776,8.05312 -17.15866,16.76811 -9.75089,8.71498 -20.80761,18.65448 -24.57047,22.08776 l -6.84158,6.24234 -61.13789,0.25766 -61.13789,0.25766 -10.24954,28.5 c -5.63725,15.675 -13.16215,36.6 -16.722,46.5 -3.55985,9.9 -10.58251,29.475 -15.60591,43.5 -5.0234,14.025 -10.96589,30.5625 -13.20554,36.75 l -4.07209,11.25 -39.11413,-0.10236 C 263.61118,381.21578 255.31528,380.93595 258,380.093 Z M 141.33258,321.87248 c -13.14005,-3.54109 -29.74524,-12.46547 -38.64952,-20.77199 -5.446051,-5.08046 -4.718914,-5.33933 1.47473,-0.52502 5.90098,4.58682 19.69397,11.43982 28.64383,14.23161 l 8.30162,2.58958 h 49.32594 c 39.50292,0 49.54294,-0.26147 50.41562,-1.31299 0.59933,-0.72215 5.8168,-14.28452 11.59438,-30.13861 5.77759,-15.85409 10.71239,-29.0333 10.96623,-29.28714 0.94104,-0.94104 2.59459,0.92421 2.59459,2.92677 0,1.99319 -3.67346,13.10135 -6.38645,19.31197 -0.72077,1.65 -4.38219,11.55 -8.13648,22 -3.7543,10.45 -7.49223,19.7875 -8.30652,20.75 -1.37322,1.62317 -4.92996,1.74523 -49.07554,1.68419 -37.36878,-0.0517 -48.70528,-0.36501 -52.76243,-1.45837 z M 137,311.73036 c -11.66905,-3.14975 -30.16273,-13.37684 -36,-19.90817 -1.593951,-1.78347 -0.6879,-1.30164 2.5,1.3295 5.43298,4.48411 16.50256,10.57164 26,14.29825 5.96017,2.33866 6.32332,2.3566 54.70522,2.7029 42.93501,0.30731 48.9887,0.16287 51.09808,-1.21925 C 237.80749,307.29278 243,295.6136 243,291.6219 c 0,-1.22388 0.45,-2.22524 1,-2.22524 0.55,0 1,-0.87344 1,-1.94098 0,-1.06754 0.45,-2.2191 1,-2.55902 0.55,-0.33992 1,-1.23718 1,-1.99392 0,-0.75673 0.52479,-2.64267 1.16621,-4.19098 0.64141,-1.5483 1.22209,-3.0401 1.2904,-3.3151 1.9663,-7.9162 8.1125,-21.76422 9.18407,-20.69265 0.2269,0.2269 -4.32443,13.36276 -10.11407,29.19079 C 242.73698,299.72283 238,312.83585 238,313.03485 c 0,0.199 -21.4875,0.32092 -47.75,0.27095 -38.87183,-0.074 -48.77262,-0.36689 -53.25,-1.57544 z m 6.7213,-80.66549 c -0.39672,-1.00748 -0.71142,-4.60748 -0.69934,-8 0.026,-7.31024 2.20147,-12.696 7.49492,-18.55521 l 3.71584,-4.113 h 67.7612 c 54.02464,0 67.9777,-0.26087 68.8292,-1.28688 0.58741,-0.70778 6.44752,-14.54528 13.02248,-30.75 9.56771,-23.5807 12.32107,-29.46312 13.79073,-29.46312 3.8512,0 4.1973,-1.03212 -17.10181,51 -3.15196,7.7 -6.19176,14.5625 -6.75512,15.25 -0.80073,0.97718 -15.52269,1.25 -67.4515,1.25 -74.41769,0 -69.85832,-0.44975 -75.27674,7.42564 -3.68661,5.3583 -5.02782,8.65703 -5.92573,14.57436 -0.49818,3.28308 -0.87789,4.00464 -1.40413,2.66821 z m -6.08293,-2.16821 c -0.31658,-0.825 -0.13972,-1.5 0.39301,-1.5 0.53274,0 0.96862,0.675 0.96862,1.5 0,0.825 -0.17686,1.5 -0.39301,1.5 -0.21616,0 -0.65203,-0.675 -0.96862,-1.5 z m -0.48211,-7 c -0.0831,-6.1094 1.86468,-13.87565 4.14911,-16.54368 0.93205,-1.08855 1.69463,-2.37167 1.69463,-2.85139 0,-1.4221 8.00246,-8.22144 8.9714,-7.6226 0.48972,0.30266 1.17306,0.093 1.51852,-0.46602 0.41496,-0.67142 22.51882,-1.01631 65.13484,-1.01631 42.16159,0 65.17048,-0.35523 66.42289,-1.0255 2.03672,-1.09002 7.39938,-11.45946 8.51996,-16.4745 0.36868,-1.65 1.20717,-3.9 1.86332,-5 0.65614,-1.1 2.69986,-5.825 4.54159,-10.5 1.84173,-4.675 4.03055,-10.075 4.86405,-12 0.8335,-1.925 1.6742,-4.4 1.86822,-5.5 0.19403,-1.1 1.49457,-3.125 2.89009,-4.5 l 2.53732,-2.5 -1.9068,5 c -1.04874,2.75 -6.5345,16.3625 -12.19058,30.25 l -10.28377,25.25 h -67.73869 -67.73868 l -4.69671,5.02117 c -5.44393,5.82 -7.4323,9.95326 -9.13004,18.97883 l -1.22268,6.5 z m -134.0711235,73 C 9.0715839,235.27538 33.6957,175.77949 72.616863,126.89666 83.851625,112.78642 108.38976,88.248287 122.5,77.013525 152.17625,53.384902 184.43494,35.576496 219.50366,23.462669 248.18504,13.555229 267.81958,9.5556638 305,6.047024 306.925,5.8653657 239.3125,5.6447195 154.75,5.5566991 L 1,5.396662 1.1600371,159.14666 c 0.08802,84.5625 0.3086666,152.175 0.4903249,150.25 0.1816583,-1.925 0.8273068,-8.45 1.4347745,-14.5 z M 651,158.89666 V 5.396662 L 497.25,5.5566991 C 412.6875,5.6447195 345.075,5.8653657 347,6.047024 397.73886,10.835146 429.33868,19.314057 469.5,38.9164 554.08686,80.202417 618.06219,159.10161 640.97854,250.39666 645.87413,269.89991 650,296.06894 650,307.6168 c 0,2.62893 0.225,4.77986 0.5,4.77986 0.275,0 0.5,-69.075 0.5,-153.5 z"
         id="path2"
         inkscape:transform-center-x="13.181641"
         inkscape:transform-center-y="-82.684841" />
    </g>
  </g>
</svg>
